<?xml version="1.0" encoding="utf-8"?>
<!-- Generator: Adobe Illustrator 18.1.1, SVG Export Plug-In . SVG Version: 6.00 Build 0)  -->
<svg version="1.1" xmlns="http://www.w3.org/2000/svg" xmlns:xlink="http://www.w3.org/1999/xlink" x="0px" y="0px" width="512px"
	 height="512px" viewBox="0 0 512 512" style="enable-background:new 0 0 512 512;" xml:space="preserve">
<g id="BASE">
	<linearGradient id="SVGID_1_" gradientUnits="userSpaceOnUse" x1="256" y1="28.1348" x2="256" y2="483.1582">
		<stop  offset="0" style="stop-color:#4387FD"/>
		<stop  offset="1" style="stop-color:#4683EA"/>
	</linearGradient>
	<path style="fill:url(#SVGID_1_);" d="M111.1643,460.8668L6.1623,278.9979c-8.2164-14.2312-8.2164-31.7648,0-45.9961
		l105.002-181.8689c8.2164-14.2313,23.401-22.9981,39.8338-22.9981h210.0038c16.4328,0,31.6174,8.7668,39.8338,22.9981
		l105.002,181.8689c8.2164,14.2312,8.2164,31.7648,0,45.9961l-105.002,181.8689c-8.2164,14.2313-23.401,22.9981-39.8338,22.9981
		H150.9981C134.5652,483.8649,119.3807,475.0981,111.1643,460.8668z"/>
</g>
<g id="shadow">
	<g>
		<defs>
			<path id="SVGID_3_" d="M111.1643,460.8668L6.1623,278.9979c-8.2164-14.2312-8.2164-31.7648,0-45.9961l105.002-181.8689
				c8.2164-14.2313,23.401-22.9981,39.8338-22.9981h210.0038c16.4328,0,31.6174,8.7668,39.8338,22.9981l105.002,181.8689
				c8.2164,14.2312,8.2164,31.7648,0,45.9961l-105.002,181.8689c-8.2164,14.2313-23.401,22.9981-39.8338,22.9981H150.9981
				C134.5652,483.8649,119.3807,475.0981,111.1643,460.8668z"/>
		</defs>
		<clipPath id="SVGID_2_">
			<use xlink:href="#SVGID_3_"  style="overflow:visible;"/>
		</clipPath>
		<polygon style="opacity:0.07;clip-path:url(#SVGID_2_);" points="484.8125,327.6875 405.0625,247.9375 402.2916,247.0834 
			262.7292,107.5208 234.0807,149.4141 258.0833,173.4167 197,195.6667 173.1328,256.3828 149.7083,232.9583 107.5101,270.0208 
			325.0726,487.5833 390.6685,488.1667 		"/>
	</g>
</g>
<g id="art">
	<g>
		<path style="fill:#FFFFFF;" d="M255.9952,163.8313c-50.9114,0-92.1809,41.267-92.1809,92.1857
			c0,50.904,41.2695,92.1853,92.1809,92.1853c50.9094,0,92.1783-41.2813,92.1783-92.1853
			C348.1734,205.0983,306.9046,163.8313,255.9952,163.8313 M255.9952,325.9554c-38.6337,0-69.9503-31.3145-69.9503-69.9384
			c0-38.6337,31.3166-69.9507,69.9503-69.9507c38.6312,0,69.9432,31.317,69.9432,69.9507
			C325.9384,294.6409,294.6264,325.9554,255.9952,325.9554"/>
		<path style="fill:#FFFFFF;" d="M400.5725,245.0964l-38.4315-12.078c1.5986,7.4158,2.4602,15.1037,2.4602,22.9912
			c0,5.5165-0.4189,10.9349-1.2086,16.2276h37.1799c3.4348-1.0061,5.7309-3.1385,5.7309-6.3062v-14.5378
			C406.3034,248.2305,404.0073,246.0379,400.5725,245.0964"/>
		<path style="fill:#FFFFFF;" d="M255.969,147.3991c7.7213,0,15.2476,0.8183,22.5141,2.3538l-13.7773-38.2916
			c-1.0061-3.4422-3.1409-5.7359-6.3062-5.7359h-5.7569c-3.1652,0-5.3627,2.2937-6.3043,5.7359l-11.9696,38.0944
			C241.3489,148.1479,248.5699,147.3991,255.969,147.3991"/>
		<path style="fill:#FFFFFF;" d="M147.387,256.0096c0-7.8875,0.8617-15.573,2.4579-22.9912l-38.4291,12.078
			c-3.4349,0.9415-5.729,3.1341-5.729,6.3017v14.5378c0,3.1627,2.294,5.2952,5.729,6.3013h37.182
			C147.8061,266.947,147.387,261.5261,147.387,256.0096"/>
		<path style="fill:#FFFFFF;" d="M288.9103,225.928l-8.7206,8.7177v-0.0192c-6.2603-6.2554-14.6196-9.7094-23.4749-9.7094
			c-8.8768,0-17.212,3.4634-23.4817,9.7287c-12.9446,12.9421-12.9446,34.0148,0,46.9595l-8.7206,8.7132
			c8.2509,8.2434,19.6382,13.3532,32.1931,13.3532c25.1212,0,45.5584-20.4324,45.5584-45.558
			C302.2639,245.5539,297.1562,234.1689,288.9103,225.928 M270.9134,270.9373c-4.111,4.121-9.5196,6.1834-14.9134,6.1834
			c-5.4105,0-10.8048-2.0624-14.9252-6.1834c-8.2464-8.2459-8.2464-21.607,0-29.8554c4.1205-4.1254,9.5147-6.176,14.9252-6.176
			c5.3939,0,10.8024,2.0506,14.9134,6.176C279.1598,249.3254,279.1598,262.6914,270.9134,270.9373"/>
	</g>
</g>
<g id="Guides" style="display:none;">
</g>
</svg>
