<?xml version="1.0" encoding="utf-8"?>
<!-- Generator: Adobe Illustrator 18.1.1, SVG Export Plug-In . SVG Version: 6.00 Build 0)  -->
<svg version="1.1" xmlns="http://www.w3.org/2000/svg" xmlns:xlink="http://www.w3.org/1999/xlink" x="0px" y="0px" width="512px"
	 height="512px" viewBox="0 0 512 512" style="enable-background:new 0 0 512 512;" xml:space="preserve">
<g id="Placement_ONLY" style="display:none;">
</g>
<g id="BASE">
	<linearGradient id="SVGID_1_" gradientUnits="userSpaceOnUse" x1="256" y1="28.1348" x2="256" y2="483.1582">
		<stop  offset="0" style="stop-color:#4387FD"/>
		<stop  offset="1" style="stop-color:#4683EA"/>
	</linearGradient>
	<path style="fill:url(#SVGID_1_);" d="M111.1643,460.8668L6.1623,278.9979c-8.2164-14.2312-8.2164-31.7648,0-45.9961
		l105.002-181.8689c8.2164-14.2313,23.401-22.9981,39.8338-22.9981h210.0038c16.4328,0,31.6174,8.7668,39.8338,22.9981
		l105.002,181.8689c8.2164,14.2312,8.2164,31.7648,0,45.9961l-105.002,181.8689c-8.2164,14.2313-23.401,22.9981-39.8338,22.9981
		H150.9981C134.5652,483.8649,119.3807,475.0981,111.1643,460.8668z"/>
</g>
<g id="shadow">
	<g>
		<defs>
			<path id="SVGID_4_" d="M111.1643,460.8668L6.1623,278.9979c-8.2164-14.2312-8.2164-31.7648,0-45.9961l105.002-181.8689
				c8.2164-14.2313,23.401-22.9981,39.8338-22.9981h210.0038c16.4328,0,31.6174,8.7668,39.8338,22.9981l105.002,181.8689
				c8.2164,14.2312,8.2164,31.7648,0,45.9961l-105.002,181.8689c-8.2164,14.2313-23.401,22.9981-39.8338,22.9981H150.9981
				C134.5652,483.8649,119.3807,475.0981,111.1643,460.8668z"/>
		</defs>
		<clipPath id="SVGID_2_">
			<use xlink:href="#SVGID_4_"  style="overflow:visible;"/>
		</clipPath>
		<polygon style="opacity:0.07;clip-path:url(#SVGID_2_);" points="476.9166,345.9167 322.5,191.5 256,173.7031 196.2682,195.8985 
			173.2029,256 191.75,322.9167 355.5,486.6667 390.25,485.125 		"/>
	</g>
</g>
<g id="art">
	<g>
		<g>
			<path style="fill:#FFFFFF;" d="M256,163.2166c-51.239,0-92.779,41.5395-92.779,92.7834c0,51.239,41.54,92.779,92.779,92.779
				s92.779-41.54,92.779-92.779C348.779,204.7561,307.239,163.2166,256,163.2166 M256,326.3958
				c-38.8798,0-70.3959-31.516-70.3959-70.3958s31.516-70.4028,70.3959-70.4028s70.4003,31.523,70.4003,70.4028
				S294.8798,326.3958,256,326.3958"/>
			<path style="fill:#FFFFFF;" d="M211.9601,252.4171v28.8365c4.2636,7.3306,10.3003,13.4809,17.5242,17.9017v-46.7383H211.9601z"/>
			<path style="fill:#FFFFFF;" d="M246.7029,228.1056v77.6436c2.9792,0.5452,6.0268,0.8796,9.1568,0.8796
				c2.8581,0,5.6393-0.3006,8.3719-0.7561v-77.7671H246.7029z"/>
			<path style="fill:#FFFFFF;" d="M283.0634,264.4037v34.2456c7.3301-4.6779,13.3911-11.1288,17.5287-18.8007v-15.4449H283.0634z"/>
			<path style="fill:#FFFFFF;" d="M322.7668,313.1472l-9.6122,9.6196c-1.6957,1.6908-1.6957,4.4526,0,6.1483l36.4573,36.4479
				c1.6907,1.6952,4.4576,1.6952,6.1483,0l9.6122-9.6052c1.6858-1.6908,1.6858-4.4571,0-6.1458l-36.4623-36.4648
				C327.2239,311.4589,324.4526,311.4589,322.7668,313.1472"/>
		</g>
	</g>
</g>
<g id="Guides">
</g>
</svg>
