<svg id="Layer_1" data-name="Layer 1" xmlns="http://www.w3.org/2000/svg" width="128" height="128" viewBox="0 0 128 128">
  <title>Data Loss Prevention API</title>
  <g>
    <path d="M126.47,58.12l-26.3-45.74A11.56,11.56,0,0,0,90.31,6.5H37.7a11.55,11.55,0,0,0-9.86,5.88L1.53,58a11.48,11.48,0,0,0,0,11.44l26.3,46a11.77,11.77,0,0,0,9.86,6.09H90.3a11.73,11.73,0,0,0,9.87-6.06l26.3-45.74A11.73,11.73,0,0,0,126.47,58.12Z" style="fill: #4285f4"/>
    <path d="M102.77,50.18,99.13,51l-.54,2.79,3.13.13v3.71L99.87,58,99,57.23l-7.07-7.06-3.57,2.54,2.38,2.38L91,56.63l-12-12H53.25L48,50.5l-3.52,5.69L38.79,50.5,35.22,53l2.37,2.37,1,3-7.9-7.9L26.41,52l.69,1.88,3,1-.31,3L26.06,58l9.39,9.39.34.6-6.5-6.5-3.57,2.54,2.65,2.65-.7,3L45.21,87.28l-4,5.31L70.15,121.5H90.3a11.73,11.73,0,0,0,9.87-6.06l24.77-43.08Z" style="opacity: 0.070000000298023;isolation: isolate"/>
    <path d="M75.31,41.7A21.27,21.27,0,0,0,47.9,45.8a20.56,20.56,0,0,0-5.18,14C42.8,67.22,46.1,73,52.05,77.38l-.66,1.09-2.2.6c-3.45,6.06-4.7,7.75-8,13.51l5.73,3.31c3.32-5.83,4.57-7.52,8-13.53L54.29,80l.56-1A21.32,21.32,0,0,0,75.31,41.7ZM67.85,73.94A14.74,14.74,0,1,1,78.21,55.86h0v.05A14.76,14.76,0,0,1,67.85,73.94Z" style="fill: #fff"/>
    <path d="M25.59,54.68l.47-4.17h4.6v1.36H27.39l-.2,1.76a2.58,2.58,0,0,1,1.23-.31,2.37,2.37,0,0,1,1.84.73,2.9,2.9,0,0,1,.66,2,3,3,0,0,1-.33,1.42,2.37,2.37,0,0,1-1,1,3,3,0,0,1-1.48.35,3.19,3.19,0,0,1-1.38-.3,2.45,2.45,0,0,1-1-.85,2.32,2.32,0,0,1-.39-1.25H27a1.2,1.2,0,0,0,.36.8,1.13,1.13,0,0,0,.8.28,1,1,0,0,0,.85-.4A1.84,1.84,0,0,0,29.3,56,1.52,1.52,0,0,0,29,54.92a1.26,1.26,0,0,0-1-.37,1.41,1.41,0,0,0-.94.3l-.16.15Z" style="fill: #fff"/>
    <path d="M38.79,58.71H37.16V52.44l-1.94.6V51.72l3.4-1.22h.17Z" style="fill: #fff"/>
    <path d="M29.3,69.74H27.67V63.46l-1.94.6V62.74l3.4-1.22h.17Z" style="fill: #fff"/>
    <path d="M40.36,66.35a4.15,4.15,0,0,1-.7,2.6,2.82,2.82,0,0,1-4,.15L35.54,69a4,4,0,0,1-.73-2.54V64.92a4.1,4.1,0,0,1,.71-2.61,2.82,2.82,0,0,1,4-.13l.12.12a4,4,0,0,1,.73,2.53Zm-1.63-1.66a3,3,0,0,0-.28-1.49.94.94,0,0,0-.87-.47.93.93,0,0,0-.85.44,2.81,2.81,0,0,0-.29,1.38v2a3.15,3.15,0,0,0,.27,1.49.93.93,0,0,0,.88.49.92.92,0,0,0,.86-.47,3.08,3.08,0,0,0,.28-1.43Z" style="fill: #fff"/>
    <path d="M91.91,58.39H90.29V52.11l-1.94.6V51.39l3.4-1.22h.17Z" style="fill: #fff"/>
    <path d="M97.69,54.35l.47-4.17h4.6v1.36H99.5l-.2,1.76a2.58,2.58,0,0,1,1.23-.31,2.37,2.37,0,0,1,1.84.73,2.9,2.9,0,0,1,.66,2,3,3,0,0,1-.33,1.42,2.37,2.37,0,0,1-1,1,3,3,0,0,1-1.48.35,3.19,3.19,0,0,1-1.38-.3,2.45,2.45,0,0,1-1-.85,2.32,2.32,0,0,1-.39-1.25H99.1a1.2,1.2,0,0,0,.36.8,1.13,1.13,0,0,0,.8.28,1,1,0,0,0,.85-.4,1.84,1.84,0,0,0,.3-1.12,1.52,1.52,0,0,0-.34-1.07,1.26,1.26,0,0,0-1-.37,1.41,1.41,0,0,0-.94.3l-.16.15Z" style="fill: #fff"/>
    <path d="M93.48,66.35a4.15,4.15,0,0,1-.7,2.6,2.82,2.82,0,0,1-4,.15L88.66,69a4,4,0,0,1-.73-2.54V64.92a4.1,4.1,0,0,1,.71-2.61,2.82,2.82,0,0,1,4-.13l.12.12a4,4,0,0,1,.73,2.53Zm-1.63-1.66a3,3,0,0,0-.28-1.49.94.94,0,0,0-.87-.47.93.93,0,0,0-.85.44,2.81,2.81,0,0,0-.29,1.38v2a3.15,3.15,0,0,0,.27,1.49.93.93,0,0,0,.88.49.92.92,0,0,0,.86-.47,3.08,3.08,0,0,0,.28-1.43Z" style="fill: #fff"/>
    <path d="M97.69,65.71l.47-4.17h4.6v1.36H99.5l-.2,1.76a2.58,2.58,0,0,1,1.23-.31,2.37,2.37,0,0,1,1.84.73,2.9,2.9,0,0,1,.66,2,3,3,0,0,1-.33,1.42,2.37,2.37,0,0,1-1,1,3,3,0,0,1-1.48.35,3.19,3.19,0,0,1-1.38-.3,2.46,2.46,0,0,1-1-.85,2.32,2.32,0,0,1-.39-1.25H99.1a1.2,1.2,0,0,0,.36.8,1.14,1.14,0,0,0,.8.28,1,1,0,0,0,.85-.4,1.83,1.83,0,0,0,.3-1.12,1.52,1.52,0,0,0-.34-1.07,1.26,1.26,0,0,0-1-.37,1.41,1.41,0,0,0-.94.3L99,66Z" style="fill: #fff"/>
    <path d="M55.39,67.57c0-1.24,0-2.45,0-3.65a3.24,3.24,0,0,1,1.33-2.38A9.33,9.33,0,0,1,60,59.86a11.11,11.11,0,0,1,9.4,1.07,6,6,0,0,1,1,.78,3.47,3.47,0,0,1,1.18,2.9c0,1,0,1.94,0,2.95Z" style="fill: #fff"/>
    <path d="M63.47,57.46a4.18,4.18,0,1,1,4.18-4.17h0v0A4.18,4.18,0,0,1,63.47,57.46Z" style="fill: #fff"/>
  </g>
</svg>
