<svg xmlns="http://www.w3.org/2000/svg" xmlns:xlink="http://www.w3.org/1999/xlink" width="512" height="512" viewBox="0 0 512 512"><defs><linearGradient id="a" x1="256" y1="28.135" x2="256" y2="483.1584" gradientUnits="userSpaceOnUse"><stop offset="0" stop-color="#4387fd"/><stop offset="1" stop-color="#4683ea"/></linearGradient><clipPath id="b"><path d="M111.1643,460.867L6.1623,278.998a45.9961,45.9961,0,0,1,0-45.9961L111.1643,51.133A45.9961,45.9961,0,0,1,150.9981,28.135H361.0019A45.9961,45.9961,0,0,1,400.8357,51.133L505.8377,233.002a45.9961,45.9961,0,0,1,0,45.9961L400.8357,460.867a45.9961,45.9961,0,0,1-39.8338,22.9981H150.9981A45.9961,45.9961,0,0,1,111.1643,460.867Z" fill="none"/></clipPath></defs><title>Virtual-Network</title><path d="M111.1643,460.867L6.1623,278.998a45.9961,45.9961,0,0,1,0-45.9961L111.1643,51.133A45.9961,45.9961,0,0,1,150.9981,28.135H361.0019A45.9961,45.9961,0,0,1,400.8357,51.133L505.8377,233.002a45.9961,45.9961,0,0,1,0,45.9961L400.8357,460.867a45.9961,45.9961,0,0,1-39.8338,22.9981H150.9981A45.9961,45.9961,0,0,1,111.1643,460.867Z" fill="url(#a)"/><g clip-path="url(#b)"><polygon points="501.531 309.469 352.656 160.594 267 201 227 161 159.308 227.663 202.822 271.178 158.875 354 293 488.125 392 488 501.531 309.469" opacity="0.07"/></g><rect x="189" y="218" width="18" height="78" fill="#fff"/><rect x="305" y="208.5" width="18" height="87.3" fill="#fff"/><rect x="217.5" y="190" width="77" height="18" fill="#fff"/><rect x="217.5" y="306" width="77" height="18" fill="#fff"/><rect x="159" y="286" width="68" height="68" rx="4" ry="4" fill="#fff"/><rect x="285" y="286" width="68" height="68" rx="4" ry="4" fill="#fff"/><rect x="159" y="160" width="68" height="68" rx="4" ry="4" fill="#fff"/><rect x="285" y="160" width="68" height="68" rx="4" ry="4" fill="#fff"/></svg>