<svg id="Layer_1" data-name="Layer 1" xmlns="http://www.w3.org/2000/svg" width="128" height="128" viewBox="0 0 128 128">
  <title>Cloud Deployment Manager</title>
  <g>
    <path d="M126.47,58.12l-26.3-45.74A11.56,11.56,0,0,0,90.31,6.5H37.7a11.55,11.55,0,0,0-9.86,5.88L1.53,58a11.48,11.48,0,0,0,0,11.44l26.3,46a11.77,11.77,0,0,0,9.86,6.09H90.3a11.73,11.73,0,0,0,9.87-6.06l26.3-45.74A11.73,11.73,0,0,0,126.47,58.12Z" style="fill: #4285f4"/>
    <path d="M96.59,45,49.31,53.88,30.91,69.26l6,6-5.46,5L72.71,121.5H90.3a11.73,11.73,0,0,0,9.87-6.06L124.59,73Z" style="opacity: 0.070000000298023;isolation: isolate"/>
    <g id="art">
      <g>
        <path d="M74.2,89.3H54a1,1,0,0,1-1-1v0a1,1,0,0,1,1-1H74.2a1,1,0,0,1,1,1v0A1,1,0,0,1,74.2,89.3Z" style="fill: #fff"/>
        <rect x="60.25" y="79.51" width="7.74" height="8.78" style="fill: #fff"/>
        <g>
          <path d="M85.66,73a1.85,1.85,0,0,1-1.33-.56L70.75,58.33l-9.13,9.6a1.84,1.84,0,0,1-2.5.16l-6.9-5.57-7.31,9.71a1.85,1.85,0,0,1-1.47.74H30.9v5.69a2.47,2.47,0,0,0,2.46,2.46H94.89a2.47,2.47,0,0,0,2.46-2.46V73Z" style="fill: #fff"/>
          <path d="M42.51,69.28l7.91-10.5a1.85,1.85,0,0,1,2.63-.33l7.06,5.7,9.29-9.77a1.85,1.85,0,0,1,1.33-.57h0a1.85,1.85,0,0,1,1.33.56l14.38,14.9H97.35V46.66a2.47,2.47,0,0,0-2.46-2.46H33.36a2.47,2.47,0,0,0-2.46,2.46V69.28Z" style="fill: #fff"/>
        </g>
      </g>
    </g>
  </g>
</svg>
