<svg xmlns="http://www.w3.org/2000/svg" xmlns:xlink="http://www.w3.org/1999/xlink" width="512" height="512" viewBox="0 0 512 512"><defs><linearGradient id="a" x1="256" y1="28.135" x2="256" y2="483.1584" gradientUnits="userSpaceOnUse"><stop offset="0" stop-color="#4387fd"/><stop offset="1" stop-color="#4683ea"/></linearGradient></defs><title>IAM</title><path d="M111.1643,460.867L6.1623,278.998a45.9961,45.9961,0,0,1,0-45.9961L111.1643,51.133A45.9961,45.9961,0,0,1,150.9981,28.135H361.0019A45.9961,45.9961,0,0,1,400.8357,51.133L505.8377,233.002a45.9961,45.9961,0,0,1,0,45.9961L400.8357,460.867a45.9961,45.9961,0,0,1-39.8338,22.9981H150.9981A45.9961,45.9961,0,0,1,111.1643,460.867Z" fill="url(#a)"/><path d="M356,179l-155.8391-3.074L188,314l10.7,33.3L335.2646,483.865h25.7373a45.9961,45.9961,0,0,0,39.8339-22.998l86.7619-150.2762Z" opacity="0.07"/><path d="M256,134.9219L156,179.3664V246.033c0,61.6667,42.6667,119.3334,100,133.3334,57.3333-14,100-71.6667,100-133.3334V179.3664ZM256,182a32,32,0,1,1-32,32A31.9912,31.9912,0,0,1,256,182Zm59,133.8507a3.9966,3.9966,0,0,1-.7324,2.3084c-0.39.5516-.7834,1.1014-1.1885,1.6437-14.9961,20.0762-35.1318,34.48-57.0791,40.9287-21.9478-6.4482-42.083-20.8525-57.0791-40.9287-0.405-.5422-0.7982-1.0919-1.1884-1.6435A3.9966,3.9966,0,0,1,197,315.8509v-19.909c0-24.1154,39.3088-36.2637,59-36.2637s59,12.1483,59,36.2637v19.9089Z" fill="#fff"/></svg>