<svg xmlns="http://www.w3.org/2000/svg" xmlns:xlink="http://www.w3.org/1999/xlink" width="512" height="512" viewBox="0 0 512 512"><defs><linearGradient id="a" x1="256" y1="28.135" x2="256" y2="483.1584" gradientUnits="userSpaceOnUse"><stop offset="0" stop-color="#4387fd"/><stop offset="1" stop-color="#4683ea"/></linearGradient><clipPath id="b"><path d="M111.1643,460.8668L6.1623,278.9979a45.9961,45.9961,0,0,1,0-45.9961L111.1643,51.1329a45.9961,45.9961,0,0,1,39.8338-22.9981H361.0019a45.9961,45.9961,0,0,1,39.8338,22.9981l105.002,181.8689a45.9961,45.9961,0,0,1,0,45.9961L400.8357,460.8668a45.9961,45.9961,0,0,1-39.8338,22.9981H150.9981A45.9961,45.9961,0,0,1,111.1643,460.8668Z" fill="none"/></clipPath></defs><title>Cloud-Endpoints</title><path d="M111.1643,460.867L6.1623,278.998a45.9961,45.9961,0,0,1,0-45.9961L111.1643,51.133A45.9961,45.9961,0,0,1,150.9981,28.135H361.0019A45.9961,45.9961,0,0,1,400.8357,51.133L505.8377,233.002a45.9961,45.9961,0,0,1,0,45.9961L400.8357,460.867a45.9961,45.9961,0,0,1-39.8338,22.9981H150.9981A45.9961,45.9961,0,0,1,111.1643,460.867Z" fill="url(#a)"/><g clip-path="url(#b)"><polygon points="484.5 327.5 344.875 187.875 364 255 350.125 284.875 304.123 238.873 253.906 245.094 196.036 187.225 140.5 256 165.056 323.806 328.625 487.375 392 488 484.5 327.5" opacity="0.07"/></g><polygon points="157 256 196.837 187 164.837 187 125 256 164.837 325 196.837 325 157 256" fill="#fff"/><polygon points="353 256 313.163 325 345.163 325 385 256 345.163 187 313.163 187 353 256" fill="#fff"/><polygon points="197 256 207.392 274 303.608 274 314 256 303.608 238 207.392 238 197 256" fill="#fff"/></svg>