<svg xmlns="http://www.w3.org/2000/svg" xmlns:xlink="http://www.w3.org/1999/xlink" width="512" height="512" viewBox="0 0 512 512"><defs><linearGradient id="a" x1="256" y1="28.135" x2="256" y2="483.1584" gradientUnits="userSpaceOnUse"><stop offset="0" stop-color="#4387fd"/><stop offset="1" stop-color="#4683ea"/></linearGradient><clipPath id="b"><path d="M111.1643,460.8668L6.1623,278.9979a45.9961,45.9961,0,0,1,0-45.9961L111.1643,51.1329a45.9961,45.9961,0,0,1,39.8338-22.9981H361.0019a45.9961,45.9961,0,0,1,39.8338,22.9981l105.002,181.8689a45.9961,45.9961,0,0,1,0,45.9961L400.8357,460.8668a45.9961,45.9961,0,0,1-39.8338,22.9981H150.9981A45.9961,45.9961,0,0,1,111.1643,460.8668Z" fill="none"/></clipPath></defs><title>Machine-Learning</title><path d="M111.1643,460.867L6.1623,278.998a45.9961,45.9961,0,0,1,0-45.9961L111.1643,51.133A45.9961,45.9961,0,0,1,150.9981,28.135H361.0019A45.9961,45.9961,0,0,1,400.8357,51.133L505.8377,233.002a45.9961,45.9961,0,0,1,0,45.9961L400.8357,460.867a45.9961,45.9961,0,0,1-39.8338,22.9981H150.9981A45.9961,45.9961,0,0,1,111.1643,460.867Z" fill="url(#a)"/><g clip-path="url(#b)"><polygon points="509.5 327.5 321 139 272.125 163.875 247.457 139.207 162 189 179 206 133 273 154 294 190.292 372.375 305.292 487.375 392 488 509.5 327.5" opacity="0.07"/></g><polygon points="319.682 295 332.383 273 378.689 273 388.5 256 359.066 205 310.961 205 297.631 182 284 182 284 166 306.852 166 320.182 189 349.832 189 320.975 139 264 139 264 206 286.917 206 296.25 222 264 222 264 255 294.383 255 308.247 231 344.961 231 354.202 247 317.481 247 303.617 271 264 271 264 333 313.397 333 304.155 349 264 349 264 373 320.975 373 369.455 289 341.617 289 328.916 311 284 311 284 295 319.682 295" fill="#fff"/><polygon points="191.318 295 178.617 273 132.311 273 122.5 256 151.934 205 200.039 205 213.369 182 227 182 227 166 204.148 166 190.818 189 161.168 189 190.025 139 247 139 247 206 224.083 206 214.75 222 247 222 247 255 216.617 255 202.753 231 166.039 231 156.798 247 193.519 247 207.383 271 247 271 247 333 197.603 333 206.845 349 247 349 247 373 190.025 373 141.545 289 169.383 289 182.084 311 227 311 227 295 191.318 295" fill="#fff"/></svg>