<?xml version="1.0" encoding="utf-8"?>
<!-- Generator: Adobe Illustrator 18.1.1, SVG Export Plug-In . SVG Version: 6.00 Build 0)  -->
<svg version="1.1" xmlns="http://www.w3.org/2000/svg" xmlns:xlink="http://www.w3.org/1999/xlink" x="0px" y="0px" width="512px"
	 height="512px" viewBox="0 0 512 512" style="enable-background:new 0 0 512 512;" xml:space="preserve">
<g id="BASE">
	<linearGradient id="SVGID_1_" gradientUnits="userSpaceOnUse" x1="256" y1="28.1348" x2="256" y2="483.1582">
		<stop  offset="0" style="stop-color:#4387FD"/>
		<stop  offset="1" style="stop-color:#4683EA"/>
	</linearGradient>
	<path style="fill:url(#SVGID_1_);" d="M111.1643,460.8668L6.1623,278.9979c-8.2164-14.2312-8.2164-31.7648,0-45.9961
		l105.002-181.8689c8.2164-14.2313,23.401-22.9981,39.8338-22.9981h210.0038c16.4328,0,31.6174,8.7668,39.8338,22.9981
		l105.002,181.8689c8.2164,14.2312,8.2164,31.7648,0,45.9961l-105.002,181.8689c-8.2164,14.2313-23.401,22.9981-39.8338,22.9981
		H150.9981C134.5652,483.8649,119.3807,475.0981,111.1643,460.8668z"/>
</g>
<g id="shadow">
	<g>
		<defs>
			<path id="SVGID_3_" d="M111.1643,460.8668L6.1623,278.9979c-8.2164-14.2312-8.2164-31.7648,0-45.9961l105.002-181.8689
				c8.2164-14.2313,23.401-22.9981,39.8338-22.9981h210.0038c16.4328,0,31.6174,8.7668,39.8338,22.9981l105.002,181.8689
				c8.2164,14.2312,8.2164,31.7648,0,45.9961l-105.002,181.8689c-8.2164,14.2313-23.401,22.9981-39.8338,22.9981H150.9981
				C134.5652,483.8649,119.3807,475.0981,111.1643,460.8668z"/>
		</defs>
		<clipPath id="SVGID_2_">
			<use xlink:href="#SVGID_3_"  style="overflow:visible;"/>
		</clipPath>
		<polygon style="opacity:0.07;clip-path:url(#SVGID_2_);" points="477.6249,338.3751 342.0505,202.8005 304,205.8333 
			304.1667,230.5 276.23,202.5634 239.3333,206.75 239.25,231.1667 210.8333,202.75 169.9167,243.75 195.3332,269.1668 
			170.6667,270.0833 170.0921,309.5088 346.9583,486.375 390.25,485.125 		"/>
	</g>
</g>
<g id="art">
	<g>
		<path style="fill:#FFFFFF;" d="M207.3752,201.2645l-34.0425,0.0074c-2.6614,0-4.8392,2.1823-4.8392,4.8367v34.1728
			c0,2.6619,2.1823,4.8442,4.8437,4.8442h34.0331c2.6614,0,4.8392-2.1823,4.8392-4.8442v-34.1728
			C212.2095,203.4542,210.0367,201.2645,207.3752,201.2645"/>
		<path style="fill:#FFFFFF;" d="M273.0168,266.8768l-34.043,0.0025c-2.6614,0-4.8387,2.1798-4.8387,4.8343l0.005,34.1827
			c0,2.6565,2.1773,4.8343,4.8387,4.8343h34.033c2.6614,0,4.8437-2.1778,4.8437-4.8343l0.0049-34.1827
			C277.8604,269.0591,275.6782,266.8768,273.0168,266.8768"/>
		<path style="fill:#FFFFFF;" d="M338.6677,266.8768l-34.0425,0.0025c-2.6614,0-4.8343,2.1798-4.8343,4.8343v34.1827
			c0,2.6565,2.1773,4.8343,4.8387,4.8343h34.033c2.6614,0,4.8437-2.1778,4.8437-4.8343l0.0049-34.1827
			C343.5114,269.0591,341.3291,266.8768,338.6677,266.8768"/>
		<path style="fill:#FFFFFF;" d="M207.3752,266.8768l-34.0425,0.0074c-2.6614,0-4.8442,2.1823-4.8442,4.8368l0.0049,34.1802
			c0,2.657,2.1823,4.8343,4.8437,4.8343h34.0331c2.652,0,4.8343-2.1773,4.8343-4.8343l0.005-34.1827
			C212.2095,269.0665,210.0267,266.8768,207.3752,266.8768 M202.5073,300.9629h-24.3165v-24.316h24.3165V300.9629z"/>
		<path style="fill:#FFFFFF;" d="M273.0212,201.2645l-34.0425,0.0074c-2.6614,0-4.8387,2.1823-4.8387,4.8367v34.1802
			c0,2.6545,2.1823,4.8367,4.8437,4.8367h34.0331c2.6565,0,4.8387-2.1823,4.8387-4.8367v-34.1802
			C277.8555,203.4542,275.6782,201.2645,273.0212,201.2645 M268.1533,235.3506h-24.316v-24.311h24.316V235.3506z"/>
		<path style="fill:#FFFFFF;" d="M338.6727,201.2645l-34.0429,0.0074c-2.6659,0-4.8437,2.1823-4.8437,4.8367l0.0049,34.1802
			c0,2.6545,2.1823,4.8367,4.8437,4.8367h34.0281c2.6614,0,4.8392-2.1823,4.8392-4.8367l0.0045-34.1802
			C343.5064,203.4542,341.3242,201.2645,338.6727,201.2645 M333.8042,235.3506h-24.316v-24.311h24.316V235.3506z"/>
	</g>
</g>
<g id="Guides">
</g>
</svg>
