<svg xmlns="http://www.w3.org/2000/svg" xmlns:xlink="http://www.w3.org/1999/xlink" width="512" height="512" viewBox="0 0 512 512"><defs><linearGradient id="a" x1="256" y1="28.135" x2="256" y2="483.1584" gradientUnits="userSpaceOnUse"><stop offset="0" stop-color="#4387fd"/><stop offset="1" stop-color="#4683ea"/></linearGradient></defs><title>spanner</title><path d="M111.1643,460.867L6.1623,278.998a45.9961,45.9961,0,0,1,0-45.9961L111.1643,51.133A45.9961,45.9961,0,0,1,150.9981,28.135H361.0019A45.9961,45.9961,0,0,1,400.8357,51.133L505.8377,233.002a45.9961,45.9961,0,0,1,0,45.9961L400.8357,460.867a45.9961,45.9961,0,0,1-39.8338,22.9981H150.9981A45.9961,45.9961,0,0,1,111.1643,460.867Z" fill="url(#a)"/><path d="M294.2916,483.8651h66.71a45.9962,45.9962,0,0,0,39.8339-22.9981L479.4315,324.735,300,145.3036,291.5,152l-6.1185,22.9442L241,130.5626,226.5,177l7.1185,5.5338L212,189.5544l39.3117,39.3117-1.038,42.3571L205.5,289l-35-12-35.2924,36.8L159.98,338.5729l-9.7726,1.2082Z" opacity="0.07"/><polygon points="344.877 295.374 376.792 313.8 378.502 281.301 340.204 259.19 315.967 275.219 274 250.989 274 202.726 300 189.527 300 145.304 271 130.563 271 167.415 256.223 174.786 241 167.415 241 130.563 212 145.331 212 189.554 238 202.53 238 250.989 196.203 275.121 171.772 259.204 133.474 281.315 135.208 313.8 167.123 295.374 180.894 304.486 182.123 321.355 150.208 339.781 177.498 357.511 215.796 335.4 214.033 306.396 256 282.166 297.797 306.297 296.228 335.414 334.526 357.525 361.792 339.781 329.877 321.355 330.883 304.872 344.877 295.374" fill="#fff"/></svg>