<svg id="Layer_1" data-name="Layer 1" xmlns="http://www.w3.org/2000/svg" width="128" height="128" viewBox="0 0 128 128">
  <title>Cloud Dataprep</title>
  <g>
    <path d="M126.47,58.12l-26.3-45.74A11.56,11.56,0,0,0,90.31,6.5H37.7a11.55,11.55,0,0,0-9.86,5.88L1.53,58a11.48,11.48,0,0,0,0,11.44l26.3,46a11.77,11.77,0,0,0,9.86,6.09H90.3a11.73,11.73,0,0,0,9.87-6.06l26.3-45.74A11.73,11.73,0,0,0,126.47,58.12Z" style="fill: #4285f4"/>
    <path d="M100.17,115.44,118.7,83.2l-40-40.12-2.43,1-9.78-9.78L62.39,51.14l-6.62-6.62-6.92,1.33-.14,5.92,8.86,8.86-.2,6.64,5,5,.32,3.63L47.1,60.31l-6.59.44-.74,6.52,9.58,9.56-.65,6.24L87.12,121.5H90.3A11.73,11.73,0,0,0,100.17,115.44Z" style="opacity: 0.070000000298023;isolation: isolate"/>
    <path d="M43.38,61a2.7,2.7,0,1,1-2.7,2.7,2.7,2.7,0,0,1,2.7-2.7h0m0-2.36a5.06,5.06,0,1,0,5.06,5.06,5.06,5.06,0,0,0-5.06-5.06Z" style="fill: #fff"/>
    <path d="M91,58.51H66.48V53.56H78.13a1.08,1.08,0,0,0,.9-1.19V44a1.08,1.08,0,0,0-.9-1.22H66.48V34.27h-5V58.74L61,58.69l0,0a5.06,5.06,0,0,0,0,10.12c.17,0,.33,0,.49-.05v25h5V85h6.9c.39,0,.7-.53.7-1.19V75.4c0-.65-.31-1.18-.7-1.18h-6.9v-5H91c.91,0,1.66-.53,1.66-1.19V59.7C92.63,59,91.88,58.51,91,58.51ZM61,66.43a2.7,2.7,0,1,1,.53-5.34v5.29A2.71,2.71,0,0,1,61,66.43Z" style="fill: #fff"/>
    <path d="M52.32,76.84a2.7,2.7,0,1,1-2.7,2.7h0a2.71,2.71,0,0,1,2.7-2.7m0-2.36a5.06,5.06,0,1,0,5.06,5.06h0A5.06,5.06,0,0,0,52.32,74.48Z" style="fill: #fff"/>
    <path d="M52.32,45.53a2.7,2.7,0,1,1-2.7,2.7,2.7,2.7,0,0,1,2.7-2.7h0m0-2.36a5.06,5.06,0,1,0,5.06,5.06,5.06,5.06,0,0,0-5.06-5.06Z" style="fill: #fff"/>
  </g>
</svg>
