<svg xmlns="http://www.w3.org/2000/svg" xmlns:xlink="http://www.w3.org/1999/xlink" width="512" height="512" viewBox="0 0 512 512"><defs><linearGradient id="a" x1="256" y1="28.135" x2="256" y2="483.1584" gradientUnits="userSpaceOnUse"><stop offset="0" stop-color="#4387fd"/><stop offset="1" stop-color="#4683ea"/></linearGradient><clipPath id="b"><path d="M111.1643,460.867L6.1623,278.998a45.9961,45.9961,0,0,1,0-45.9961L111.1643,51.133A45.9961,45.9961,0,0,1,150.9981,28.135H361.0019A45.9961,45.9961,0,0,1,400.8357,51.133L505.8377,233.002a45.9961,45.9961,0,0,1,0,45.9961L400.8357,460.867a45.9961,45.9961,0,0,1-39.8338,22.9981H150.9981A45.9961,45.9961,0,0,1,111.1643,460.867Z" fill="none"/></clipPath></defs><title>Innerconnect</title><path d="M111.1643,460.867L6.1623,278.998a45.9961,45.9961,0,0,1,0-45.9961L111.1643,51.133A45.9961,45.9961,0,0,1,150.9981,28.135H361.0019A45.9961,45.9961,0,0,1,400.8357,51.133L505.8377,233.002a45.9961,45.9961,0,0,1,0,45.9961L400.8357,460.867a45.9961,45.9961,0,0,1-39.8338,22.9981H150.9981A45.9961,45.9961,0,0,1,111.1643,460.867Z" fill="url(#a)"/><g clip-path="url(#b)"><polygon points="501.281 328.553 334.156 161.427 211 182 236.069 206.931 183 250 136.906 266.594 215.156 344.844 211.959 350.459 352.75 491.25 392 488 501.281 328.553" opacity="0.07"/></g><rect x="318" y="245" width="58" height="22" fill="#fff"/><rect x="313" y="180" width="22" height="152" fill="#fff"/><rect x="136" y="245" width="54" height="22" fill="#fff"/><path d="M215,160H331a4,4,0,0,1,4,4v18a0,0,0,0,1,0,0H211a0,0,0,0,1,0,0V164A4,4,0,0,1,215,160Z" fill="#fff"/><path d="M211,330H335a0,0,0,0,1,0,0v18a4,4,0,0,1-4,4H215a4,4,0,0,1-4-4V330A0,0,0,0,1,211,330Z" fill="#fff"/><rect x="186" y="206" width="100" height="100" rx="3.7062" ry="3.7062" fill="#fff"/></svg>