<?xml version="1.0" encoding="utf-8"?>
<!-- Generator: Adobe Illustrator 18.1.1, SVG Export Plug-In . SVG Version: 6.00 Build 0)  -->
<svg version="1.1" xmlns="http://www.w3.org/2000/svg" xmlns:xlink="http://www.w3.org/1999/xlink" x="0px" y="0px" width="512px"
	 height="512px" viewBox="0 0 512 512" style="enable-background:new 0 0 512 512;" xml:space="preserve">
<g id="BASE">
	<linearGradient id="SVGID_1_" gradientUnits="userSpaceOnUse" x1="256" y1="28.1348" x2="256" y2="483.1582">
		<stop  offset="0" style="stop-color:#4387FD"/>
		<stop  offset="1" style="stop-color:#4683EA"/>
	</linearGradient>
	<path style="fill:url(#SVGID_1_);" d="M111.1643,460.8668L6.1623,278.9979c-8.2164-14.2312-8.2164-31.7648,0-45.9961
		l105.002-181.8689c8.2164-14.2313,23.401-22.9981,39.8338-22.9981h210.0038c16.4328,0,31.6174,8.7668,39.8338,22.9981
		l105.002,181.8689c8.2164,14.2312,8.2164,31.7648,0,45.9961l-105.002,181.8689c-8.2164,14.2313-23.401,22.9981-39.8338,22.9981
		H150.9981C134.5652,483.8649,119.3807,475.0981,111.1643,460.8668z"/>
</g>
<g id="shadow">
	<g>
		<defs>
			<path id="SVGID_3_" d="M111.1643,460.8668L6.1623,278.9979c-8.2164-14.2312-8.2164-31.7648,0-45.9961l105.002-181.8689
				c8.2164-14.2313,23.401-22.9981,39.8338-22.9981h210.0038c16.4328,0,31.6174,8.7668,39.8338,22.9981l105.002,181.8689
				c8.2164,14.2312,8.2164,31.7648,0,45.9961l-105.002,181.8689c-8.2164,14.2313-23.401,22.9981-39.8338,22.9981H150.9981
				C134.5652,483.8649,119.3807,475.0981,111.1643,460.8668z"/>
		</defs>
		<clipPath id="SVGID_2_">
			<use xlink:href="#SVGID_3_"  style="overflow:visible;"/>
		</clipPath>
		<polygon style="opacity:0.07;clip-path:url(#SVGID_2_);" points="490.8333,311.8334 321.3333,142.3333 256.5,157.8333 
			190.5,142.6667 223.3333,175.5 168.2,232.7906 178.2,242.7906 168.6404,266.3071 188.6404,286.3071 168.25,307.0833 219,357.8333 
			190.5724,370.364 308.5208,488.3125 390.6685,488.1667 		"/>
	</g>
</g>
<g id="art">
	<g>
		<g>
			<circle style="fill:#FFFFFF;" cx="332.6286" cy="256.5924" r="14.298"/>
			<circle style="fill:#FFFFFF;" cx="179.3714" cy="256.5924" r="14.298"/>
		</g>
		<g>
			<circle style="fill:#FFFFFF;" cx="256" cy="235.1454" r="14.298"/>
			<circle style="fill:#FFFFFF;" cx="256" cy="278.0395" r="14.298"/>
		</g>
		<polygon style="fill:#FFFFFF;" points="277.555,167.9478 321.4788,142.5882 300.2202,130.3144 299.6312,130.3144 
			256.0021,155.504 256.001,155.5035 255.9999,155.504 212.3708,130.3144 211.7819,130.3144 190.5232,142.5882 234.447,167.9478 
			168.2,205.9848 168.2,232.7906 190.8,232.7906 190.8,218.4286 245.1284,186.6684 245.1284,209.9978 266.8734,209.9978 
			266.8734,186.6684 321.1,218.4286 321.1,232.7906 343.8,232.7906 343.8,205.9848 		"/>
		<polygon style="fill:#FFFFFF;" points="321.1,294.5041 266.8734,326.2643 266.8734,303.2083 245.1284,303.2083 245.1284,326.2643 
			190.8,294.5041 190.8,280.1419 168.2,280.1419 168.2,306.9477 234.5066,345.0194 190.5232,370.4132 211.7818,382.687 
			212.3707,382.687 256.001,357.4968 299.6311,382.687 300.2201,382.687 321.4788,370.4132 277.4954,345.0194 343.8,306.9477 
			343.8,280.1419 321.1,280.1419 		"/>
	</g>
</g>
<g id="Guides" style="display:none;">
</g>
</svg>
