<svg id="Layer_1" data-name="Layer 1" xmlns="http://www.w3.org/2000/svg" width="128" height="128" viewBox="0 0 128 128">
  <title>Cloud Tools for PowerShell</title>
  <g>
    <path d="M126.47,58.12l-26.3-45.74A11.56,11.56,0,0,0,90.31,6.5H37.7a11.55,11.55,0,0,0-9.86,5.88L1.53,58a11.48,11.48,0,0,0,0,11.44l26.3,46a11.77,11.77,0,0,0,9.86,6.09H90.3a11.73,11.73,0,0,0,9.87-6.06l26.3-45.74A11.73,11.73,0,0,0,126.47,58.12Z" style="fill: #4285f4"/>
    <path d="M92.87,51.23,95,64l-1.48,3.15L74,47.62,54.63,48,48.42,59.14l-7.79-7.79L32.29,64.46l2.91,12.37L79.88,121.5H90.3a11.73,11.73,0,0,0,9.87-6.06L120.95,79.3Z" style="opacity: 0.070000000298023;isolation: isolate"/>
    <g id="art">
      <g>
        <path d="M83,63,74.36,48.06a2,2,0,0,0-1.73-1H55.37a2,2,0,0,0-1.73,1L45,63a2,2,0,0,0,0,2l8.63,14.94a2,2,0,0,0,1.73,1H72.63a2,2,0,0,0,1.73-1L83,65A2,2,0,0,0,83,63ZM64,71.34A7.34,7.34,0,1,1,71.34,64,7.34,7.34,0,0,1,64,71.34Z" style="fill: #fff"/>
        <path d="M93.4,64.61,87.25,75.27a1.23,1.23,0,0,0,1.06,1.84H92a1.23,1.23,0,0,0,1.06-.61l6.86-11.88a1.23,1.23,0,0,0,0-1.23L93.07,51.5A1.23,1.23,0,0,0,92,50.89H88.32a1.23,1.23,0,0,0-1.06,1.84L93.4,63.39A1.23,1.23,0,0,1,93.4,64.61Z" style="fill: #fff"/>
        <path d="M36,77.11h3.68a1.23,1.23,0,0,0,1.06-1.84L34.6,64.61a1.23,1.23,0,0,1,0-1.23l6.15-10.65a1.23,1.23,0,0,0-1.06-1.84H36a1.23,1.23,0,0,0-1.06.61L28.07,63.39a1.23,1.23,0,0,0,0,1.23L34.93,76.5A1.23,1.23,0,0,0,36,77.11Z" style="fill: #fff"/>
      </g>
    </g>
  </g>
</svg>
