<?xml version="1.0" encoding="utf-8"?>
<!-- Generator: Adobe Illustrator 19.1.0, SVG Export Plug-In . SVG Version: 6.00 Build 0)  -->
<svg version="1.1" xmlns="http://www.w3.org/2000/svg" xmlns:xlink="http://www.w3.org/1999/xlink" x="0px" y="0px" width="512px"
	 height="512px" viewBox="0 0 512 512" style="enable-background:new 0 0 512 512;" xml:space="preserve">
<style type="text/css">
	.st0{fill:url(#SVGID_1_);}
	.st1{fill:url(#SVGID_2_);}
	.st2{opacity:0.07;clip-path:url(#SVGID_4_);}
	.st3{opacity:0.07;clip-path:url(#SVGID_6_);}
	.st4{fill:#FFFFFF;}
	.st5{fill:#242424;}
</style>
<g id="BASE">
	<linearGradient id="SVGID_1_" gradientUnits="userSpaceOnUse" x1="256" y1="28.1348" x2="256" y2="483.1582">
		<stop  offset="0" style="stop-color:#4387FD"/>
		<stop  offset="1" style="stop-color:#4683EA"/>
	</linearGradient>
	<path class="st0" d="M111.1643,460.8668L6.1623,278.9979c-8.2164-14.2312-8.2164-31.7648,0-45.9961l105.002-181.8689
		c8.2164-14.2313,23.401-22.9981,39.8338-22.9981h210.0038c16.4328,0,31.6174,8.7668,39.8338,22.9981l105.002,181.8689
		c8.2164,14.2312,8.2164,31.7648,0,45.9961l-105.002,181.8689c-8.2164,14.2313-23.401,22.9981-39.8338,22.9981H150.9981
		C134.5652,483.8649,119.3807,475.0981,111.1643,460.8668z"/>
</g>
<g id="shadow">
	<g>
		<defs>
			<path id="SVGID_3_" d="M111.1643,460.8668L6.1623,278.9979c-8.2164-14.2312-8.2164-31.7648,0-45.9961l105.002-181.8689
				c8.2164-14.2313,23.401-22.9981,39.8338-22.9981h210.0038c16.4328,0,31.6174,8.7668,39.8338,22.9981l105.002,181.8689
				c8.2164,14.2312,8.2164,31.7648,0,45.9961l-105.002,181.8689c-8.2164,14.2313-23.401,22.9981-39.8338,22.9981H150.9981
				C134.5652,483.8649,119.3807,475.0981,111.1643,460.8668z"/>
		</defs>
		<clipPath id="SVGID_2_">
			<use xlink:href="#SVGID_3_"  style="overflow:visible;"/>
		</clipPath>
		<polygon style="opacity:0.07;clip-path:url(#SVGID_2_);" points="482.1666,325.8334 337.3333,181 258.6667,157 173.8333,217.8333 
			225,269 173.9167,275.25 221.8332,323.1668 174.0781,330.7448 336.1667,492.8333 390.25,485.125 		"/>
	</g>
</g>
<g id="art">
	<g>
		<path class="st4" d="M256.0001,134.0469l-81.9303,47.3024v36.5817l81.9303,47.3026l81.93-47.3026v-36.5817L256.0001,134.0469z
			 M304.938,199.1004l-0.0343-0.02l-48.9037,28.2348l-48.904-28.2348l-0.0343,0.02v-0.0396l0.0343,0.0197l48.904-28.2345
			l48.9037,28.2345l0.0343-0.0197V199.1004z"/>
		<polygon class="st4" points="174.0687,238.5987 174.0687,275.1808 256,322.4828 337.9313,275.1808 337.9313,238.5987 
			256,285.9012 		"/>
		<polygon class="st4" points="174.0687,294.069 174.0687,330.6511 256,377.9531 337.9313,330.6511 337.9313,294.069 256,341.3715 
					"/>
	</g>
</g>
<g id="Guides">
</g>
</svg>
