<svg xmlns="http://www.w3.org/2000/svg" xmlns:xlink="http://www.w3.org/1999/xlink" width="512" height="512" viewBox="0 0 512 512"><defs><linearGradient id="a" x1="256" y1="28.135" x2="256" y2="483.1584" gradientUnits="userSpaceOnUse"><stop offset="0" stop-color="#4387fd"/><stop offset="1" stop-color="#4683ea"/></linearGradient><clipPath id="b"><path d="M111.1643,460.867L6.1623,278.998a45.9961,45.9961,0,0,1,0-45.9961L111.1643,51.133A45.9961,45.9961,0,0,1,150.9981,28.135H361.0019A45.9961,45.9961,0,0,1,400.8357,51.133L505.8377,233.002a45.9961,45.9961,0,0,1,0,45.9961L400.8357,460.867a45.9961,45.9961,0,0,1-39.8338,22.9981H150.9981A45.9961,45.9961,0,0,1,111.1643,460.867Z" fill="none"/></clipPath></defs><title>DNS</title><path d="M111.1643,460.867L6.1623,278.998a45.9961,45.9961,0,0,1,0-45.9961L111.1643,51.133A45.9961,45.9961,0,0,1,150.9981,28.135H361.0019A45.9961,45.9961,0,0,1,400.8357,51.133L505.8377,233.002a45.9961,45.9961,0,0,1,0,45.9961L400.8357,460.867a45.9961,45.9961,0,0,1-39.8338,22.9981H150.9981A45.9961,45.9961,0,0,1,111.1643,460.867Z" fill="url(#a)"/><g clip-path="url(#b)"><polygon points="499.281 314.719 345.49 160.927 172 173 166.5 214.5 186.5 234.5 166.141 286.33 210.656 330.844 166.5 342 311.125 486.625 392 488 499.281 314.719" opacity="0.07"/></g><rect x="247" y="207" width="18" height="126" fill="#fff"/><rect x="166" y="324" width="180" height="18" fill="#fff"/><rect x="238" y="315" width="36" height="36" rx="4" ry="4" fill="#fff"/><path d="M166,165v46a4,4,0,0,0,4,4H342a4,4,0,0,0,4-4V165a4,4,0,0,0-4-4H170A4,4,0,0,0,166,165Zm36,32H184V179h18v18Z" fill="#fff"/><path d="M166,238v46a4,4,0,0,0,4,4H342a4,4,0,0,0,4-4V238a4,4,0,0,0-4-4H170A4,4,0,0,0,166,238Zm36,32H184V252h18v18Z" fill="#fff"/></svg>