<?xml version="1.0" encoding="utf-8"?>
<!-- Generator: Adobe Illustrator 18.1.1, SVG Export Plug-In . SVG Version: 6.00 Build 0)  -->
<svg version="1.1" xmlns="http://www.w3.org/2000/svg" xmlns:xlink="http://www.w3.org/1999/xlink" x="0px" y="0px" width="512px"
	 height="512px" viewBox="0 0 512 512" style="enable-background:new 0 0 512 512;" xml:space="preserve">
<g id="BASE">
	<linearGradient id="SVGID_1_" gradientUnits="userSpaceOnUse" x1="256" y1="28.1348" x2="256" y2="483.1581">
		<stop  offset="0" style="stop-color:#4387FD"/>
		<stop  offset="1" style="stop-color:#4683EA"/>
	</linearGradient>
	<path style="fill:url(#SVGID_1_);" d="M111.1643,460.8668L6.1623,278.9979c-8.2164-14.2313-8.2164-31.7649,0-45.9961
		l105.002-181.8689c8.2164-14.2313,23.4009-22.9981,39.8338-22.9981h210.0038c16.4329,0,31.6174,8.7668,39.8338,22.9981
		l105.002,181.8689c8.2164,14.2312,8.2164,31.7648,0,45.9961l-105.002,181.8689c-8.2164,14.2313-23.4009,22.9981-39.8338,22.9981
		H150.9981C134.5652,483.8649,119.3807,475.0981,111.1643,460.8668z"/>
</g>
<g id="shadow">
	<g>
		<defs>
			<path id="SVGID_3_" d="M111.1643,460.8668L6.1623,278.9979c-8.2164-14.2313-8.2164-31.7649,0-45.9961l105.002-181.8689
				c8.2164-14.2313,23.4009-22.9981,39.8338-22.9981h210.0038c16.4329,0,31.6174,8.7668,39.8338,22.9981l105.002,181.8689
				c8.2164,14.2312,8.2164,31.7648,0,45.9961l-105.002,181.8689c-8.2164,14.2313-23.4009,22.9981-39.8338,22.9981H150.9981
				C134.5652,483.8649,119.3807,475.0981,111.1643,460.8668z"/>
		</defs>
		<clipPath id="SVGID_2_">
			<use xlink:href="#SVGID_3_"  style="overflow:visible;"/>
		</clipPath>
		<polygon style="opacity:0.07;clip-path:url(#SVGID_2_);" points="481.7499,326.3334 258.375,102.9583 244.5833,116.9583 
			279.1845,151.5595 263.2234,155.3475 297.625,193.25 285.4001,196.0668 244.0732,154.7399 229.9439,168.3189 259.4211,197.7961 
			232.8109,197.4725 215.1892,207.7726 232.6458,225.2292 175.3333,324.7485 191.8925,369.1008 310.3541,487.5625 
			390.6685,487.7917 		"/>
	</g>
</g>
<g id="art">
	<circle style="fill:#FFFFFF;" cx="236.5484" cy="161.03" r="9.8122"/>
	<circle style="fill:#FFFFFF;" cx="273.5705" cy="144.8808" r="14.7183"/>
	<circle style="fill:#FFFFFF;" cx="251.2666" cy="109.7206" r="9.8122"/>
	<g>
		<g>
			<path style="fill:#FFFFFF;" d="M285.8916,234.256l-1.4682,0.0103L325,304H219.2572l-12.6542,21.9178
				c-0.8763,1.5179-0.8763,3.3881,0,4.906l15.396,26.6673h101.416l16.8159-29.1203L285.8916,234.256z M290.6719,325L285,315h40.4803
				l6.3093,10H290.6719z"/>
		</g>
	</g>
	<path style="fill:#FFFFFF;" d="M342.6035,322.9238l-53.9462-92.7626c-0.4306-0.7458-0.6573-1.5919-0.6573-2.453V208h8
		c1.1046,0,2-0.8954,2-2v-11c0-1.1046-0.8954-2-2-2h-79c-1.1046,0-2,0.8954-2,2v11c0,1.1046,0.8954,2,2,2h8v19.7083
		c0,0.8611-0.3694,1.7072-0.8,2.453l-53.8035,92.7626c-1.7528,3.0359-1.7528,6.7763-0.0001,9.8122L189.9648,367
		c1.7528,3.0359,4.9921,4.9061,8.4976,4.9061h116.0752c3.5056,0,6.7448-1.8702,8.4976-4.9061l19.5684-34.264
		C344.3563,329.7001,344.3563,325.9597,342.6035,322.9238z M325.8908,330.449l-13.3351,23.0978
		c-0.8764,1.518-2.496,2.4531-4.2488,2.4531H204.6941c-1.7527,0-3.3723-0.935-4.2487-2.4529l-13.3372-23.098
		c-0.8765-1.518-0.8765-3.3883-0.0001-4.9064l51.5773-89.8701c0.8612-1.4917,1.3146-3.1838,1.3146-4.9062V208h33v22.7665
		c0,1.7224,0.4534,3.4145,1.3146,4.9062l51.5762,89.8702C326.7672,327.0609,326.7672,328.9311,325.8908,330.449z"/>
	<polygon style="fill:#FFFFFF;" points="254.6718,262.8237 296.0649,262.8237 289.845,253 249,253 	"/>
	<polygon style="fill:#FFFFFF;" points="265.4756,281.1252 271.1474,290.949 311.5417,290.949 305.714,281.1252 	"/>
</g>
<g id="Guides">
</g>
</svg>
