<?xml version="1.0" encoding="utf-8"?>
<!-- Generator: Adobe Illustrator 18.1.1, SVG Export Plug-In . SVG Version: 6.00 Build 0)  -->
<svg version="1.1" xmlns="http://www.w3.org/2000/svg" xmlns:xlink="http://www.w3.org/1999/xlink" x="0px" y="0px" width="512px"
	 height="512px" viewBox="0 0 512 512" style="enable-background:new 0 0 512 512;" xml:space="preserve">
<g id="BASE">
	<linearGradient id="SVGID_1_" gradientUnits="userSpaceOnUse" x1="256" y1="28.1348" x2="256" y2="483.1582">
		<stop  offset="0" style="stop-color:#4387FD"/>
		<stop  offset="1" style="stop-color:#4683EA"/>
	</linearGradient>
	<path style="fill:url(#SVGID_1_);" d="M111.1643,460.8668L6.1623,278.9979c-8.2164-14.2312-8.2164-31.7648,0-45.9961
		l105.002-181.8689c8.2164-14.2313,23.401-22.9981,39.8338-22.9981h210.0038c16.4328,0,31.6174,8.7668,39.8338,22.9981
		l105.002,181.8689c8.2164,14.2312,8.2164,31.7648,0,45.9961l-105.002,181.8689c-8.2164,14.2313-23.401,22.9981-39.8338,22.9981
		H150.9981C134.5652,483.8649,119.3807,475.0981,111.1643,460.8668z"/>
</g>
<g id="shadow">
	<g>
		<defs>
			<path id="SVGID_3_" d="M111.1643,460.8668L6.1623,278.9979c-8.2164-14.2312-8.2164-31.7648,0-45.9961l105.002-181.8689
				c8.2164-14.2313,23.401-22.9981,39.8338-22.9981h210.0038c16.4328,0,31.6174,8.7668,39.8338,22.9981l105.002,181.8689
				c8.2164,14.2312,8.2164,31.7648,0,45.9961l-105.002,181.8689c-8.2164,14.2313-23.401,22.9981-39.8338,22.9981H150.9981
				C134.5652,483.8649,119.3807,475.0981,111.1643,460.8668z"/>
		</defs>
		<clipPath id="SVGID_2_">
			<use xlink:href="#SVGID_3_"  style="overflow:visible;"/>
		</clipPath>
		<polygon style="opacity:0.07;clip-path:url(#SVGID_2_);" points="498.9999,298.3334 363.6755,163.0088 358.6811,202.4856 
			331.8134,175.6179 238.2078,137.287 290.5229,189.6021 227.1667,159.6667 121.4985,209.3319 150.1667,238 148.2171,349.2171 
			286.5833,487.5833 390.6685,488.1667 		"/>
	</g>
</g>
<g id="art">
	<g>
		<g>
			<g>
				<path style="fill:#FFFFFF;" d="M334.7532,182.6292l0.08,82.7047c0.0017,1.7835-0.9491,3.4323-2.4937,4.324l-13.4208,7.7485
					l-0.0527-85.6014c-0.0022-3.5614-1.903-6.8515-4.9873-8.6322l-66.7673-38.5486c-10.3695-5.9838-17.0789-16.7939-17.9428-28.6348
					l100.593,58.0084C332.8471,175.7773,334.7497,179.0671,334.7532,182.6292z"/>
			</g>
			<g>
				<path style="fill:#FFFFFF;" d="M358.9176,287.5168l-71.5844,41.4216c-1.5437,0.8932-3.447,0.8942-4.9916,0.0024l-13.4208-7.7485
					l74.1067-42.8464c3.0832-1.7826,4.9821-5.0739,4.9821-8.6353l0.0004-77.0965c-0.0026-11.9721,6.0045-23.1877,15.8271-29.8563
					l0.0597,116.1203C363.8984,282.4401,362.0006,285.7328,358.9176,287.5168z"/>
			</g>
			<g>
				<path style="fill:#FFFFFF;" d="M280.1644,360.8876L208.5,319.6045c-1.5455-0.8903-2.4979-2.5381-2.4979-4.3216v-15.497
					l74.1594,42.7551c3.0854,1.7788,6.8851,1.7776,9.9694-0.0031l66.7677-38.5479c10.3669-5.9883,23.0834-6.3939,33.7699-1.2215
					l-100.5332,58.1118C287.0514,362.6628,283.2509,362.6656,280.1644,360.8876z"/>
			</g>
			<g>
				<path style="fill:#FFFFFF;" d="M177.2468,329.3708l-0.08-82.7047c-0.0017-1.7835,0.9491-3.4323,2.4937-4.324l13.4208-7.7485
					l0.0527,85.6014c0.0022,3.5614,1.9031,6.8515,4.9873,8.6322l66.7673,38.5486c10.3694,5.9838,17.0789,16.7939,17.9428,28.6348
					l-100.5929-58.0084C179.1529,336.2227,177.2503,332.9328,177.2468,329.3708z"/>
			</g>
			<g>
				<path style="fill:#FFFFFF;" d="M153.0824,224.4832l71.5844-41.4216c1.5437-0.8933,3.447-0.8942,4.9915-0.0024l13.4209,7.7485
					l-74.1067,42.8464c-3.0832,1.7826-4.982,5.0739-4.9821,8.6353l-0.0004,77.0965c0.0026,11.9721-6.0044,23.1877-15.8271,29.8563
					l-0.0597-116.1202C148.1015,229.5598,149.9993,226.2672,153.0824,224.4832z"/>
			</g>
			<g>
				<path style="fill:#FFFFFF;" d="M231.8356,151.1123L303.5,192.3954c1.5455,0.8903,2.4979,2.5381,2.4979,4.3216v15.497
					l-74.1594-42.7551c-3.0854-1.7788-6.8851-1.7776-9.9694,0.0031L155.1013,208.01c-10.3669,5.9883-23.0834,6.3939-33.7699,1.2215
					l100.5332-58.1118C224.9486,149.3371,228.7491,149.3343,231.8356,151.1123z"/>
			</g>
		</g>
		<g>
			<path style="fill:#FFFFFF;" d="M255.9699,277.2241c-0.9449,0-1.8946-0.2459-2.7421-0.7354l-47.266-27.2878v11.9035
				l50.0081,28.8732l50.0108-28.875v-11.9032l-47.2687,27.2894C257.8646,276.9782,256.9148,277.2241,255.9699,277.2241z"/>
			<path style="fill:#FFFFFF;" d="M258.712,301.0627c-0.8474,0.4895-1.7972,0.7354-2.7421,0.7354s-1.8946-0.2459-2.7421-0.7354
				l-47.266-27.29v8.8053c0,1.8894,1.0082,3.6352,2.6444,4.5798l44.7209,25.8197c1.6362,0.9446,3.6523,0.9446,5.2884,0
				l44.7212-25.8197c1.6362-0.9446,2.6441-2.6903,2.6441-4.5798v-8.8068L258.712,301.0627z"/>
			<path style="fill:#FFFFFF;" d="M255.9699,265.4034l50.0108-28.8726v-5.5922c0-1.8895-1.0079-3.6352-2.6441-4.5798
				l-44.7212-25.8197c-1.6362-0.9449-3.6523-0.9449-5.2884,0l-44.7209,25.8197c-1.6362,0.9446-2.6444,2.6903-2.6444,4.5798v5.5938
				L255.9699,265.4034z"/>
		</g>
	</g>
</g>
<g id="Guides" style="display:none;">
</g>
</svg>
