<svg id="Layer_1" data-name="Layer 1" xmlns="http://www.w3.org/2000/svg" width="128" height="128" viewBox="0 0 128 128">
  <title>Cloud Video Intelligence API</title>
  <g>
    <path d="M126.47,58.1l-26.3-45.74a11.56,11.56,0,0,0-9.86-5.88H37.7a11.55,11.55,0,0,0-9.86,5.88L1.53,58a11.48,11.48,0,0,0,0,11.44l26.3,46a11.77,11.77,0,0,0,9.86,6.09H90.3a11.73,11.73,0,0,0,9.87-6.06l26.3-45.74A11.73,11.73,0,0,0,126.47,58.1Z" style="fill: #4285f4"/>
    <path d="M94,46.3l-4.68,8.89L77,43,64.84,50l5.54,5.55-2.62,0L55.25,43,38.59,46,34,56l6.29,6.26L34,67.73l7,7.13L34,85l36.42,36.5H90.3a11.73,11.73,0,0,0,9.87-6.06l23-40Z" style="opacity: 0.070000000298023;isolation: isolate"/>
    <polygon points="77 42.98 60.42 42.98 64.84 49.98 71 49.98 71 53.98 62.23 53.98 55.25 42.98 34.02 42.98 34.02 55.98 40 55.98 43.78 48.98 51.5 48.98 54.06 52.98 46.35 52.98 42.57 59.98 34.02 59.98 34.02 67.73 42.57 67.73 46.35 74.98 54.06 74.98 51.5 78.98 43.78 78.98 40 71.98 34.02 71.98 34.02 84.98 55.25 84.98 62.23 73.98 71 73.98 71 77.98 64.84 77.98 60.42 84.98 77 84.98 77 65.98 57.75 65.98 55.28 69.98 49.75 69.98 53.54 63.98 49.75 57.98 55.28 57.98 57.67 61.98 77 61.98 77 42.98" style="fill: #fff"/>
    <polygon points="93.99 46.3 82 55.01 82 73.32 93.99 82.16 93.99 46.3" style="fill: #fff"/>
  </g>
</svg>
