<svg xmlns="http://www.w3.org/2000/svg" xmlns:xlink="http://www.w3.org/1999/xlink" width="512" height="512" viewBox="0 0 512 512"><defs><linearGradient id="a" x1="256" y1="28.135" x2="256" y2="483.1584" gradientUnits="userSpaceOnUse"><stop offset="0" stop-color="#4387fd"/><stop offset="1" stop-color="#4683ea"/></linearGradient></defs><title>Cloud Function_</title><path d="M111.1643,460.867L6.1623,278.998a45.9961,45.9961,0,0,1,0-45.9961L111.1643,51.133A45.9961,45.9961,0,0,1,150.9981,28.135H361.0019A45.9961,45.9961,0,0,1,400.8357,51.133L505.8377,233.002a45.9961,45.9961,0,0,1,0,45.9961L400.8357,460.867a45.9961,45.9961,0,0,1-39.8338,22.9981H150.9981A45.9961,45.9961,0,0,1,111.1643,460.867Z" fill="url(#a)"/><path d="M376.2192,197.1028l-14.9744,14.9744,3.2786,94.3665-13.8115,20.0334-8.0134-8.0134H350.05V285.6311L314.7388,250.32l-25.3906,12.6885,0.7278,2.8325-89.915-89.915-43.2937,21.8376-5.2627,44.228,14.9744,80.948,21.6975,21.26-9.2925,15.0513L303.5979,483.865h57.404a45.9961,45.9961,0,0,0,39.8339-22.998L488.37,309.2534Z" opacity="0.07"/><circle cx="211.1111" cy="256" r="15.0084" fill="#fff"/><circle cx="256" cy="256" r="15.0084" fill="#fff"/><circle cx="300.8889" cy="256" r="15.0084" fill="#fff"/><polygon points="167 207.512 199.736 174.926 178.559 153.749 136.205 196.103 136.205 196.105 136 196.105 136 315.836 136.205 315.836 136.205 315.897 178.559 358.251 199.736 337.074 167 304.488 167 207.512" fill="#fff"/><polygon points="376 196.125 375.795 196.125 375.795 196.103 333.441 153.749 312.264 174.926 345 207.662 345 304.338 312.264 337.074 333.441 358.251 375.785 315.907 376 315.907 376 196.125" fill="#fff"/></svg>