<?xml version="1.0" encoding="utf-8"?>
<!-- Generator: Adobe Illustrator 18.1.1, SVG Export Plug-In . SVG Version: 6.00 Build 0)  -->
<svg version="1.1" xmlns="http://www.w3.org/2000/svg" xmlns:xlink="http://www.w3.org/1999/xlink" x="0px" y="0px" width="512px"
	 height="512px" viewBox="0 0 512 512" style="enable-background:new 0 0 512 512;" xml:space="preserve">
<g id="BASE">
	<linearGradient id="SVGID_1_" gradientUnits="userSpaceOnUse" x1="256" y1="28.1348" x2="256" y2="483.1582">
		<stop  offset="0" style="stop-color:#4387FD"/>
		<stop  offset="1" style="stop-color:#4683EA"/>
	</linearGradient>
	<path style="fill:url(#SVGID_1_);" d="M111.1643,460.8668L6.1623,278.9979c-8.2164-14.2312-8.2164-31.7648,0-45.9961
		l105.002-181.8689c8.2164-14.2313,23.401-22.9981,39.8338-22.9981h210.0038c16.4328,0,31.6174,8.7668,39.8338,22.9981
		l105.002,181.8689c8.2164,14.2312,8.2164,31.7648,0,45.9961l-105.002,181.8689c-8.2164,14.2313-23.401,22.9981-39.8338,22.9981
		H150.9981C134.5652,483.8649,119.3807,475.0981,111.1643,460.8668z"/>
</g>
<g id="shadow">
	<g>
		<defs>
			<path id="SVGID_3_" d="M111.1643,460.8668L6.1623,278.9979c-8.2164-14.2312-8.2164-31.7648,0-45.9961l105.002-181.8689
				c8.2164-14.2313,23.401-22.9981,39.8338-22.9981h210.0038c16.4328,0,31.6174,8.7668,39.8338,22.9981l105.002,181.8689
				c8.2164,14.2312,8.2164,31.7648,0,45.9961l-105.002,181.8689c-8.2164,14.2313-23.401,22.9981-39.8338,22.9981H150.9981
				C134.5652,483.8649,119.3807,475.0981,111.1643,460.8668z"/>
		</defs>
		<clipPath id="SVGID_2_">
			<use xlink:href="#SVGID_3_"  style="overflow:visible;"/>
		</clipPath>
		<polygon style="opacity:0.07;clip-path:url(#SVGID_2_);" points="491.4166,319.4167 369.8869,197.8869 351.6667,206.3333 
			322.5569,278.2236 306.3718,262.0385 279.5991,259.2657 229.3449,209.0116 199.6667,212.3333 171.1922,183.8589 
			157.6667,211.3333 99.3212,223.1559 151.8347,275.6695 107.2095,319.6262 274.25,486.6667 390.25,485.125 		"/>
	</g>
</g>
<g id="art">
	<g>
		<g>
			<path style="fill:#FFFFFF;" d="M350.9818,197.7091h19.083l45.2857,124.7756H396.836l-13.0287-37.376h-48.9516l-13.5327,37.376
				h-17.3258L350.9818,197.7091z M379.011,271.3519l-19.2108-55.1259l-19.9603,55.1259H379.011z"/>
		</g>
		<path style="fill:#FFFFFF;" d="M202.2255,231h-18.0589c-1.8051,5-3.7286,8.3229-5.7719,11.9863
			c-4.1216,7.3944-8.6093,13.8385-13.4631,19.4299c-5.0658-6.0134-9.8185-12.6701-14.2534-20.1173
			C148.584,238.7801,146.6659,236,144.8988,231h-17.6729c2.453,5,5.1792,11.8541,8.2497,17.2115
			c5.384,9.4019,11.2454,17.957,17.5791,25.7705c-6.7581,6.0159-14.6219,11.7187-23.5973,17.1536
			c-8.9725,5.4423-19.6351,10.1484-31.989,14.1612l9.0282,15.0422c11.3994-4.3288,21.9849-9.4258,31.7504-15.2846
			c9.7657-5.8614,18.5531-12.1683,26.3665-18.9309c3.6945,3.3835,7.8136,6.6292,12.3541,9.7428
			c4.5361,3.114,9.3149,6.0984,14.3304,8.9469c5.0134,2.8515,10.1367,5.488,15.3618,7.9175
			c5.2302,2.427,10.4262,4.5387,15.6034,6.3339l8.8667-16.1546c-4.3311-1.3692-8.8667-2.9788-13.6196-4.8277
			c-4.7528-1.8485-9.5005-3.9596-14.2532-6.3337c-4.7529-2.3786-9.4236-5.0154-14.0175-7.9191
			c-4.5883-2.9018-8.8425-6.0978-12.7493-9.583c6.6544-7.5988,12.5661-16.0811,17.7384-25.6345
			C197.2029,243.1167,199.8446,236,202.2255,231z"/>
		<polygon style="fill:#FFFFFF;" points="307.1323,261.9886 278.6281,245.5303 278.6281,258.376 222.9282,258.376 
			222.9282,266.6307 278.6281,266.6307 278.6281,278.4472 		"/>
		<polygon style="fill:#FFFFFF;" points="171.5258,208.8676 171.5258,184.1112 154.8524,184.1112 154.8524,208.8676 
			99.1506,208.8676 99.1506,223.309 229.1173,223.309 229.1173,208.8676 		"/>
	</g>
</g>
<g id="Guides">
</g>
</svg>
