<svg xmlns="http://www.w3.org/2000/svg" xmlns:xlink="http://www.w3.org/1999/xlink" width="512" height="512" viewBox="0 0 512 512"><defs><linearGradient id="a" x1="256" y1="28.1348" x2="256" y2="483.1582" gradientUnits="userSpaceOnUse"><stop offset="0" stop-color="#4387fd"/><stop offset="1" stop-color="#4683ea"/></linearGradient><clipPath id="b"><path d="M111.1643,460.8668L6.1623,278.9979a45.9961,45.9961,0,0,1,0-45.9961L111.1643,51.1329a45.9961,45.9961,0,0,1,39.8338-22.9981H361.0019a45.9961,45.9961,0,0,1,39.8338,22.9981l105.002,181.8689a45.9961,45.9961,0,0,1,0,45.9961L400.8357,460.8668a45.9961,45.9961,0,0,1-39.8338,22.9981H150.9981A45.9961,45.9961,0,0,1,111.1643,460.8668Z" fill="none"/></clipPath></defs><title>jobs-api</title><path d="M111.1643,460.8668L6.1623,278.9979a45.9961,45.9961,0,0,1,0-45.9961L111.1643,51.1329a45.9961,45.9961,0,0,1,39.8338-22.9981H361.0019a45.9961,45.9961,0,0,1,39.8338,22.9981l105.002,181.8689a45.9961,45.9961,0,0,1,0,45.9961L400.8357,460.8668a45.9961,45.9961,0,0,1-39.8338,22.9981H150.9981A45.9961,45.9961,0,0,1,111.1643,460.8668Z" fill="url(#a)"/><g clip-path="url(#b)"><polygon points="476.917 345.917 322.5 191.5 256 173.703 196.268 195.899 173.203 256 191.75 322.917 355.5 486.667 390.25 485.125 476.917 345.917" opacity="0.07"/></g><path d="M256,163.2166A92.7812,92.7812,0,1,0,348.779,256,92.7814,92.7814,0,0,0,256,163.2166m0,163.1793A70.3993,70.3993,0,1,1,326.4,256,70.3942,70.3942,0,0,1,256,326.3959" fill="#fff"/><path d="M322.7668,313.1472l-9.6122,9.62a4.3513,4.3513,0,0,0,0,6.1483l36.4573,36.4479a4.3522,4.3522,0,0,0,6.1483,0l9.6122-9.6052a4.3665,4.3665,0,0,0,0-6.1458L328.91,313.1472a4.3589,4.3589,0,0,0-6.1434,0" fill="#fff"/><rect x="212" y="232" width="88" height="60" rx="6.3489" ry="6.3489" fill="#fff"/><path d="M269,222v10H243V222h26m3.0779-10H239.9221A6.922,6.922,0,0,0,233,218.9221v16.1559A6.922,6.922,0,0,0,239.9221,242h32.1559A6.9221,6.9221,0,0,0,279,235.0779V218.9221A6.9221,6.9221,0,0,0,272.0779,212h0Z" fill="#fff"/></svg>