<?xml version="1.0" encoding="utf-8"?>
<!-- Generator: Adobe Illustrator 18.1.1, SVG Export Plug-In . SVG Version: 6.00 Build 0)  -->
<svg version="1.1" xmlns="http://www.w3.org/2000/svg" xmlns:xlink="http://www.w3.org/1999/xlink" x="0px" y="0px" width="512px"
	 height="512px" viewBox="0 0 512 512" style="enable-background:new 0 0 512 512;" xml:space="preserve">
<g id="BASE">
	<linearGradient id="SVGID_1_" gradientUnits="userSpaceOnUse" x1="256" y1="28.1348" x2="256" y2="483.1582">
		<stop  offset="0" style="stop-color:#4387FD"/>
		<stop  offset="1" style="stop-color:#4683EA"/>
	</linearGradient>
	<path style="fill:url(#SVGID_1_);" d="M111.1643,460.8668L6.1623,278.9979c-8.2164-14.2312-8.2164-31.7648,0-45.9961
		l105.002-181.8689c8.2164-14.2313,23.401-22.9981,39.8338-22.9981h210.0038c16.4328,0,31.6174,8.7668,39.8338,22.9981
		l105.002,181.8689c8.2164,14.2312,8.2164,31.7648,0,45.9961l-105.002,181.8689c-8.2164,14.2313-23.401,22.9981-39.8338,22.9981
		H150.9981C134.5652,483.8649,119.3807,475.0981,111.1643,460.8668z"/>
</g>
<g id="shadow">
	<g>
		<defs>
			<path id="SVGID_3_" d="M111.1643,460.8668L6.1623,278.9979c-8.2164-14.2312-8.2164-31.7648,0-45.9961l105.002-181.8689
				c8.2164-14.2313,23.401-22.9981,39.8338-22.9981h210.0038c16.4328,0,31.6174,8.7668,39.8338,22.9981l105.002,181.8689
				c8.2164,14.2312,8.2164,31.7648,0,45.9961l-105.002,181.8689c-8.2164,14.2313-23.401,22.9981-39.8338,22.9981H150.9981
				C134.5652,483.8649,119.3807,475.0981,111.1643,460.8668z"/>
		</defs>
		<clipPath id="SVGID_2_">
			<use xlink:href="#SVGID_3_"  style="overflow:visible;"/>
		</clipPath>
		<polygon style="opacity:0.07;clip-path:url(#SVGID_2_);" points="475.7499,336.0001 341.9518,202.2018 197.25,215.5 
			169.2083,243.4583 193.0417,267.2917 169.4479,309.1979 347.9896,487.7396 391.25,487.75 		"/>
	</g>
</g>
<g id="art">
	<g>
		<path style="fill:#FFFFFF;" d="M338.7994,201.0768l-165.7441,0.005c-2.6687,0-4.8516,2.1829-4.8516,4.8516l0.005,34.2654
			c0,2.6633,2.1829,4.8466,4.8467,4.8466H338.795c2.6682,0,4.8511-2.1834,4.8511-4.8466v-34.2704
			C343.6461,203.2646,341.4677,201.0768,338.7994,201.0768 M313.1354,232.9775c-5.4676,0-9.9015-4.4562-9.9114-9.9189
			c0.0099-5.487,4.4294-9.9089,9.9114-9.9089c5.4776,0,9.9164,4.4125,9.9164,9.9089
			C323.0518,228.5312,318.613,232.9775,313.1354,232.9775"/>
		<path style="fill:#FFFFFF;" d="M338.7994,266.9448l-165.7441,0.005c-2.6687,0-4.8516,2.1854-4.8516,4.8586l0.005,34.2585
			c0,2.6633,2.1829,4.8516,4.8467,4.8516H338.795c2.6682,0,4.8511-2.1884,4.8511-4.8516v-34.2659
			C343.6461,269.1351,341.4677,266.9448,338.7994,266.9448 M313.1354,298.8455c-5.4676,0-9.9015-4.4537-9.9114-9.9189
			c0.0099-5.487,4.4294-9.9064,9.9114-9.9064c5.4776,0,9.9164,4.4169,9.9164,9.9064
			C323.0518,294.4062,318.613,298.8455,313.1354,298.8455"/>
	</g>
</g>
<g id="Guides">
</g>
</svg>
