<svg id="Layer_1" data-name="Layer 1" xmlns="http://www.w3.org/2000/svg" width="128" height="128" viewBox="0 0 128 128">
  <title>Cloud Resource Manager</title>
  <g>
    <path d="M126.47,58.12l-26.3-45.74A11.56,11.56,0,0,0,90.31,6.5H37.7a11.55,11.55,0,0,0-9.86,5.88L1.53,58a11.48,11.48,0,0,0,0,11.44l26.3,46a11.77,11.77,0,0,0,9.86,6.09H90.3a11.73,11.73,0,0,0,9.87-6.06l26.3-45.74A11.73,11.73,0,0,0,126.47,58.12Z" style="fill: #4285f4"/>
    <path d="M89,44.84,50,44,47,78.5l2.27,7.8,35.2,35.2H90.3a11.73,11.73,0,0,0,9.87-6.06l21.7-37.73Z" style="opacity: 0.070000000298023;isolation: isolate"/>
    <path d="M64,33.73,39,44.84V61.51c0,15.42,10.67,29.83,25,33.33,14.33-3.5,25-17.92,25-33.33V44.84ZM64,45.5a8,8,0,1,1-8,8,8,8,0,0,1,8-8ZM79,78.58a1,1,0,0,1-.17.56c-.18.27-.36.55-.56.81A27.87,27.87,0,0,1,64,90.18,27.87,27.87,0,0,1,49.73,80c-.2-.26-.38-.54-.56-.81a1,1,0,0,1-.17-.56V74.14c0-6.13,10-9.22,15-9.22S79,68,79,74.14v4.44Z" style="fill: #fff"/>
  </g>
</svg>
