<svg id="Layer_1" data-name="Layer 1" xmlns="http://www.w3.org/2000/svg" width="128" height="128" viewBox="0 0 128 128">
  <title>Cloud APIs</title>
  <g>
    <path d="M126.47,58.12l-26.3-45.74A11.56,11.56,0,0,0,90.31,6.5H37.7a11.55,11.55,0,0,0-9.86,5.88L1.53,58a11.48,11.48,0,0,0,0,11.44l26.3,46a11.77,11.77,0,0,0,9.86,6.09H90.3a11.73,11.73,0,0,0,9.87-6.06l26.3-45.74A11.73,11.73,0,0,0,126.47,58.12Z" style="fill: #4285f4"/>
    <path d="M74,41l-10.42-1.8L54,49.7l5.83,5.83-4,4.75-6.23-6.23L37.5,61,41,74,88.5,121.5h1.8a11.73,11.73,0,0,0,9.87-6.06l17.62-30.65Z" style="opacity: 0.070000000298023;isolation: isolate"/>
    <path d="M78.81,64,64,78.81,49.19,64,64,49.19ZM64,73.6,73.6,64,64,54.4,54.41,64Z" style="fill: #fff"/>
    <polygon points="78.28 73.97 87.03 73.97 97 64 87.03 54.03 78.28 54.03 88.25 64 78.28 73.97" style="fill: #fff"/>
    <polygon points="54.03 78.28 54.03 87.03 64 97 73.97 87.03 73.97 78.28 64 88.25 54.03 78.28" style="fill: #fff"/>
    <polygon points="64 31 54.03 40.97 54.03 49.72 64 39.75 73.97 49.72 73.97 40.97 64 31" style="fill: #fff"/>
    <polygon points="49.72 54.03 40.97 54.03 31 64 40.97 73.97 49.72 73.97 39.75 64 49.72 54.03" style="fill: #fff"/>
  </g>
</svg>
