<svg id="Layer_1" data-name="Layer 1" xmlns="http://www.w3.org/2000/svg" width="128" height="128" viewBox="0 0 128 128">
  <title>Cloud Source Repositories</title>
  <g>
    <path d="M126.47,58.12l-26.3-45.74A11.56,11.56,0,0,0,90.31,6.5H37.7a11.55,11.55,0,0,0-9.86,5.88L1.53,58a11.48,11.48,0,0,0,0,11.44l26.3,46a11.77,11.77,0,0,0,9.86,6.09H90.3a11.73,11.73,0,0,0,9.87-6.06l26.3-45.74A11.73,11.73,0,0,0,126.47,58.12Z" style="fill: #4285f4"/>
    <path d="M79.66,38.74,53,43l-5.24,17.5-8.08-7,8.48,35.63L80.5,121.5h9.8a11.73,11.73,0,0,0,9.87-6.06L120.6,79.91Z" style="opacity: 0.070000000298023;isolation: isolate"/>
    <g>
      <path d="M71.76,64.08a7.93,7.93,0,1,1-7.93-7.93,7.93,7.93,0,0,1,7.93,7.93h0" style="fill: #fff"/>
      <path d="M93.19,62,87.25,51.69H75.14L82.23,64l-1.91,3.33L73.11,79.89l-2.23,3.87L67,90.46h9.84a4,4,0,0,0,3.44-2L93.19,66a4,4,0,0,0,0-3.95" style="fill: #fff"/>
      <path d="M54.85,79.89,45.73,64,39.67,53.51,34.77,62a4,4,0,0,0,0,3.95L47.66,88.47a4,4,0,0,0,3.44,2H62.93L69,79.89Z" style="fill: #fff"/>
      <path d="M85.23,48.17l-4.92-8.58a4,4,0,0,0-3.44-2H51.09a4,4,0,0,0-3.44,2L41.68,50l6.07,10.51,7.1-12.34H85.23Z" style="fill: #fff"/>
    </g>
  </g>
</svg>
