<svg id="Layer_1" data-name="Layer 1" xmlns="http://www.w3.org/2000/svg" width="128" height="128" viewBox="0 0 128 128">
  <title>Key Management Service</title>
  <g>
    <path d="M126.47,58.12l-26.3-45.74A11.56,11.56,0,0,0,90.31,6.5H37.7a11.55,11.55,0,0,0-9.86,5.88L1.53,58a11.48,11.48,0,0,0,0,11.44l26.3,46a11.77,11.77,0,0,0,9.86,6.09H90.3a11.73,11.73,0,0,0,9.87-6.06l26.3-45.74A11.73,11.73,0,0,0,126.47,58.12Z" style="fill: #4285f4"/>
    <path d="M92.92,44.09,63.46,33.9,37.22,45.3,37,53.08v11.4l1.81,10.13,3.07,7.06L47.5,92.24,76.06,121H90.25a11.5,11.5,0,0,0,10-5.75l23.4-40.52Z" style="opacity: 0.070000000298023;isolation: isolate"/>
    <path d="M64,65.43a8.77,8.77,0,1,1,8.76-8.78h0A8.78,8.78,0,0,1,64,65.43Zm0-13a4.22,4.22,0,1,0,4.22,4.22h0A4.23,4.23,0,0,0,64,52.44Z" style="fill: #fff"/>
    <path d="M64,101.3l-.54-.13C47.26,97.23,35,81,35,63.39V44.14L64,31.26,92.94,44.14V63.4c0,17.57-12.21,33.82-28.4,37.77ZM39.6,47.08V63.39c0,15.35,10.45,29.53,24.4,33.23,14-3.7,24.4-17.88,24.4-33.23V47.08L64,36.23Z" style="fill: #fff"/>
    <rect x="61.73" y="62.62" width="4.54" height="22.13" style="fill: #fff"/>
    <rect x="54.78" y="70.44" width="8.24" height="4.54" style="fill: #fff"/>
    <rect x="57.79" y="76.94" width="6.86" height="4.54" style="fill: #fff"/>
  </g>
</svg>
