<?xml version="1.0" encoding="utf-8"?>
<!-- Generator: Adobe Illustrator 19.0.1, SVG Export Plug-In . SVG Version: 6.00 Build 0)  -->
<svg version="1.1" xmlns="http://www.w3.org/2000/svg" xmlns:xlink="http://www.w3.org/1999/xlink" x="0px" y="0px" width="512px"
	 height="512px" viewBox="0 0 512 512" style="enable-background:new 0 0 512 512;" xml:space="preserve">
<g id="BASE">
	<linearGradient id="SVGID_1_" gradientUnits="userSpaceOnUse" x1="256" y1="28.1348" x2="256" y2="483.1581">
		<stop  offset="0" style="stop-color:#4387FD"/>
		<stop  offset="1" style="stop-color:#4683EA"/>
	</linearGradient>
	<path style="fill:url(#SVGID_1_);" d="M111.1643,460.8668L6.1623,278.9979c-8.2164-14.2313-8.2164-31.7649,0-45.9961
		l105.002-181.8689c8.2164-14.2313,23.4009-22.9981,39.8338-22.9981h210.0038c16.4329,0,31.6174,8.7668,39.8338,22.9981
		l105.002,181.8689c8.2164,14.2312,8.2164,31.7648,0,45.9961l-105.002,181.8689c-8.2164,14.2313-23.4009,22.9981-39.8338,22.9981
		H150.9981C134.5652,483.8649,119.3807,475.0981,111.1643,460.8668z"/>
</g>
<g id="shadow">
	<g>
		<defs>
			<path id="SVGID_3_" d="M111.1643,460.8668L6.1623,278.9979c-8.2164-14.2313-8.2164-31.7649,0-45.9961l105.002-181.8689
				c8.2164-14.2313,23.4009-22.9981,39.8338-22.9981h210.0038c16.4329,0,31.6174,8.7668,39.8338,22.9981l105.002,181.8689
				c8.2164,14.2312,8.2164,31.7648,0,45.9961l-105.002,181.8689c-8.2164,14.2313-23.4009,22.9981-39.8338,22.9981H150.9981
				C134.5652,483.8649,119.3807,475.0981,111.1643,460.8668z"/>
		</defs>
		<clipPath id="SVGID_2_">
			<use xlink:href="#SVGID_3_"  style="overflow:visible;"/>
		</clipPath>
		<polygon style="opacity:0.07;clip-path:url(#SVGID_2_);" points="474.8333,339.1667 289.2083,153.5417 228,156 213,249 212,290 
			159,286 145.1458,346.6042 290.6041,492.0625 390.6685,487.7917 		"/>
	</g>
</g>
<g id="art">
	<g>
		<path style="fill:#FFFFFF;" d="M294.2593,160.5086c0.0005,0.0008,0.001,0.0017,0.0015,0.0025
			c4.172,7.2281,6.377,15.4768,6.3747,23.8576c-0.0018,12.7546-4.9708,24.7438-13.9911,33.7608
			c-9.0203,9.017-21.0117,13.9816-33.7664,13.9798c-17.0048-0.004-32.855-9.1623-41.3642-23.9008
			c-4.1729-7.2276-6.377-15.4768-6.3751-23.8585c0.0044-26.3284,21.4283-47.7445,47.7575-47.7406
			C269.9009,136.6134,285.7505,145.7709,294.2593,160.5086z M232.7889,195.9253c4.1362,7.1642,11.836,11.6158,20.0938,11.618
			c12.7826,0.0015,23.1844-10.3961,23.1867-23.1793c0.001-4.0725-1.0657-8.0743-3.0847-11.5714
			c-4.1349-7.1638-11.8347-11.6154-20.0934-11.6171c-12.7826-0.0015-23.1844,10.3961-23.1867,23.1793
			C229.7033,188.4285,230.7703,192.429,232.7889,195.9253z"/>
		<path style="fill:#FFFFFF;" d="M205,299.6144c9.4109,3.8675,18.3624,10.0741,25,18.3856V199l-24.8622-14.6495L205,299.6144z"/>
		<path style="fill:#FFFFFF;" d="M372.5735,287.8303c0.0005,0.0009,0.001,0.0017,0.0015,0.0025
			c8.5126,14.7462,8.5144,33.058,0.0064,47.7884c-13.1685,22.7989-42.4302,30.6337-65.2302,17.4653
			c-7.2515-4.1889-13.2885-10.2195-17.4577-17.4408c-8.5134-14.7457-8.5163-33.0574-0.0071-47.7896
			c13.1688-22.7985,42.4315-30.6334,65.2304-17.4648C362.3682,274.5801,368.405,280.6103,372.5735,287.8303z M311.1685,323.3625
			c2.0168,3.4933,4.9456,6.4156,8.4699,8.4516c11.0692,6.3932,25.2768,2.5893,31.67-8.4799
			c4.132-7.1538,4.1282-16.051-0.0094-23.2194c-0.0002-0.0004-0.0007-0.0013-0.0007-0.0013
			c-2.0164-3.4924-4.9446-6.4139-8.4689-8.4499c-11.0692-6.3932-25.2769-2.5894-31.6703,8.4795
			C307.0266,307.2978,307.0301,316.1945,311.1685,323.3625z"/>
		<path style="fill:#FFFFFF;" d="M227.8719,225.2725l114.9577,66.3916l12.2871-21.2729l-99.0414-57.1982
			C248.0207,219.4093,238.3885,223.6798,227.8719,225.2725z"/>
		<path style="fill:#FFFFFF;" d="M223.0982,292.0244C223.0989,292.0256,223.0975,292.0231,223.0982,292.0244l0.0049,0.0085
			c6.3748,11.0464,8.0669,23.9146,4.7635,36.2339c-3.3035,12.3193-11.2064,22.6144-22.2532,28.9895
			c-22.8001,13.1575-52.0569,5.3153-65.2188-17.4818c-6.3793-11.0551-8.0714-23.9233-4.7677-36.2422
			c3.3032-12.3197,11.2064-22.6144,22.253-28.9899C180.6785,261.3863,209.9375,269.2294,223.0982,292.0244z M161.6672,327.487
			c6.3926,11.0723,20.5974,14.8799,31.6671,8.4916c5.3635-3.0949,9.2004-8.0938,10.8044-14.0744
			c1.6037-5.9811,0.7824-12.2288-2.3129-17.592l-0.0027-0.0046c-6.3901-11.0681-20.5948-14.8763-31.6642-8.4876
			c-5.3633,3.0953-9.2004,8.0938-10.8041,14.0748C157.7506,315.8761,158.5719,322.1238,161.6672,327.487z"/>
		<path style="fill:#FFFFFF;" d="M307.6786,269.9828l-114.3443,65.9958l12.279,21.2776l98.4297-56.8117
			C302.6862,290.3621,303.8022,279.8862,307.6786,269.9828z"/>
	</g>
</g>
<g id="Guides">
</g>
</svg>
