<svg xmlns="http://www.w3.org/2000/svg" xmlns:xlink="http://www.w3.org/1999/xlink" width="512" height="512" viewBox="0 0 512 512"><defs><linearGradient id="a" x1="256" y1="28.135" x2="256" y2="483.1584" gradientUnits="userSpaceOnUse"><stop offset="0" stop-color="#4387fd"/><stop offset="1" stop-color="#4683ea"/></linearGradient><clipPath id="b"><path d="M111.1643,460.867L6.1623,278.998a45.9961,45.9961,0,0,1,0-45.9961L111.1643,51.133A45.9961,45.9961,0,0,1,150.9981,28.135H361.0019A45.9961,45.9961,0,0,1,400.8357,51.133L505.8377,233.002a45.9961,45.9961,0,0,1,0,45.9961L400.8357,460.867a45.9961,45.9961,0,0,1-39.8338,22.9981H150.9981A45.9961,45.9961,0,0,1,111.1643,460.867Z" fill="none"/></clipPath></defs><title>Load-Balancing</title><path d="M111.1643,460.867L6.1623,278.998a45.9961,45.9961,0,0,1,0-45.9961L111.1643,51.133A45.9961,45.9961,0,0,1,150.9981,28.135H361.0019A45.9961,45.9961,0,0,1,400.8357,51.133L505.8377,233.002a45.9961,45.9961,0,0,1,0,45.9961L400.8357,460.867a45.9961,45.9961,0,0,1-39.8338,22.9981H150.9981A45.9961,45.9961,0,0,1,111.1643,460.867Z" fill="url(#a)"/><g clip-path="url(#b)"><polygon points="482.448 336.053 315.323 168.927 217.667 201.334 195.989 214.678 228.156 246.844 182 251 183 294.32 158.667 327 316.792 485.125 392 488 482.448 336.053" opacity="0.07"/></g><rect x="249" y="211" width="14" height="87" fill="#fff"/><path d="M179.7417,243H190a0,0,0,0,1,0,0v60a0,0,0,0,1,0,0H176a0,0,0,0,1,0,0V246.7417A3.7417,3.7417,0,0,1,179.7417,243Z" fill="#fff"/><path d="M322,243h10.2583A3.7417,3.7417,0,0,1,336,246.7417V303a0,0,0,0,1,0,0H322a0,0,0,0,1,0,0V243A0,0,0,0,1,322,243Z" fill="#fff"/><path d="M179.7185,243h152.563A3.7185,3.7185,0,0,1,336,246.7185V257a0,0,0,0,1,0,0H176a0,0,0,0,1,0,0V246.7185A3.7185,3.7185,0,0,1,179.7185,243Z" fill="#fff"/><rect x="195" y="168" width="122" height="48" rx="3.7816" ry="3.7816" fill="#fff"/><rect x="230" y="286" width="52" height="42" rx="4" ry="4" fill="#fff"/><rect x="157" y="286" width="52" height="42" rx="4" ry="4" fill="#fff"/><rect x="303" y="286" width="52" height="42" rx="4" ry="4" fill="#fff"/></svg>