<svg id="Layer_1" data-name="Layer 1" xmlns="http://www.w3.org/2000/svg" width="128" height="128" viewBox="0 0 128 128">
  <title>Identity-Aware Proxy</title>
  <g>
    <path d="M126.47,58.12l-26.3-45.74A11.56,11.56,0,0,0,90.31,6.5H37.7a11.55,11.55,0,0,0-9.86,5.88L1.53,58a11.48,11.48,0,0,0,0,11.44l26.3,46a11.77,11.77,0,0,0,9.86,6.09H90.3a11.73,11.73,0,0,0,9.87-6.06l26.3-45.74A11.73,11.73,0,0,0,126.47,58.12Z" style="fill: #4285f4"/>
    <path d="M121.76,77.88,89.59,45.73l-8.65,2.58,2.29,2.29-1.88,1.13L92.23,62.61l-5.85,1.47L74,51.67l-16-2.92L47.4,56.06l-.92,16.47-11.6-11.9-6.16.73-.51,6L82.33,121.5h8a11.73,11.73,0,0,0,9.87-6.06Z" style="opacity: 0.070000000298023;isolation: isolate"/>
    <path d="M61.37,46.48a17.9,17.9,0,1,0,17.9,17.9,17.9,17.9,0,0,0-17.9-17.9Zm0,31.87a14,14,0,1,1,14-14,14,14,0,0,1-14,14Z" style="fill: #fff"/>
    <path d="M68.11,66.5a5.83,5.83,0,0,0-1-.76,10.82,10.82,0,0,0-9.15-1,9.08,9.08,0,0,0-3.14,1.64,3.15,3.15,0,0,0-1.3,2.31c0,1.17,0,2.34,0,3.55H69.24c0-1,0-1.93,0-2.87A3.38,3.38,0,0,0,68.11,66.5Z" style="fill: #fff"/>
    <path d="M61.35,62.35a4.06,4.06,0,1,0-4.08-4,4.06,4.06,0,0,0,4.08,4Z" style="fill: #fff"/>
    <polygon points="92.7 59.52 89.05 59.52 91.76 62.23 83.99 62.23 83.99 65.39 91.76 65.39 89.05 68.1 92.7 68.1 96.99 63.81 92.7 59.52" style="fill: #fff"/>
    <polygon points="81.35 51.73 83.59 53.97 87.01 50.55 87.01 54.38 89.59 51.8 89.59 45.73 83.52 45.73 80.94 48.31 84.77 48.31 81.35 51.73" style="fill: #fff"/>
    <polygon points="87.01 77.45 83.59 74.03 81.35 76.27 84.77 79.69 80.94 79.69 83.52 82.27 89.59 82.27 89.59 76.2 87.01 73.62 87.01 77.45" style="fill: #fff"/>
    <path d="M31.54,59.25A4.75,4.75,0,1,0,36.29,64a4.75,4.75,0,0,0-4.75-4.75Zm0,7.38A2.64,2.64,0,1,1,34.18,64a2.64,2.64,0,0,1-2.64,2.64Z" style="fill: #fff"/>
  </g>
</svg>
