<svg xmlns="http://www.w3.org/2000/svg" xmlns:xlink="http://www.w3.org/1999/xlink" width="512" height="512" viewBox="0 0 512 512"><defs><linearGradient id="a" x1="256" y1="28.135" x2="256" y2="483.1584" gradientUnits="userSpaceOnUse"><stop offset="0" stop-color="#4387fd"/><stop offset="1" stop-color="#4683ea"/></linearGradient><clipPath id="b"><path d="M111.1643,460.867L6.1623,278.998a45.9961,45.9961,0,0,1,0-45.9961L111.1643,51.133A45.9961,45.9961,0,0,1,150.9981,28.135H361.0019A45.9961,45.9961,0,0,1,400.8357,51.133L505.8377,233.002a45.9961,45.9961,0,0,1,0,45.9961L400.8357,460.867a45.9961,45.9961,0,0,1-39.8338,22.9981H150.9981A45.9961,45.9961,0,0,1,111.1643,460.867Z" fill="none"/></clipPath></defs><title>CDN</title><path d="M111.1643,460.867L6.1623,278.998a45.9961,45.9961,0,0,1,0-45.9961L111.1643,51.133A45.9961,45.9961,0,0,1,150.9981,28.135H361.0019A45.9961,45.9961,0,0,1,400.8357,51.133L505.8377,233.002a45.9961,45.9961,0,0,1,0,45.9961L400.8357,460.867a45.9961,45.9961,0,0,1-39.8338,22.9981H150.9981A45.9961,45.9961,0,0,1,111.1643,460.867Z" fill="url(#a)"/><g clip-path="url(#b)"><polygon points="488.115 354.053 297.531 163.469 253 147 211 201 223 213 228.423 239.173 200.423 211.173 146 253 166.5 300.875 349.125 483.5 392 488 488.115 354.053" opacity="0.07"/></g><polygon points="256 122 211 167 211 201 256 156 301 201 301 167 256 122" fill="#fff"/><polygon points="256 391 211 346 211 312 256 357 301 312 301 346 256 391" fill="#fff"/><polygon points="121 256 166 301 200 301 155 256 200 211 166 211 121 256" fill="#fff"/><polygon points="391 256 346 301 312 301 357 256 312 211 346 211 391 256" fill="#fff"/><rect x="211" y="211" width="90" height="90" rx="4" ry="4" transform="translate(0 512) rotate(-90)" fill="#fff"/></svg>