<?xml version="1.0" encoding="utf-8"?>
<!-- Generator: Adobe Illustrator 18.1.1, SVG Export Plug-In . SVG Version: 6.00 Build 0)  -->
<svg version="1.1" xmlns="http://www.w3.org/2000/svg" xmlns:xlink="http://www.w3.org/1999/xlink" x="0px" y="0px" width="512px"
	 height="512px" viewBox="0 0 512 512" style="enable-background:new 0 0 512 512;" xml:space="preserve">
<g id="BASE">
	<linearGradient id="SVGID_1_" gradientUnits="userSpaceOnUse" x1="256" y1="28.1348" x2="256" y2="483.1582">
		<stop  offset="0" style="stop-color:#4387FD"/>
		<stop  offset="1" style="stop-color:#4683EA"/>
	</linearGradient>
	<path style="fill:url(#SVGID_1_);" d="M111.1643,460.8668L6.1623,278.9979c-8.2164-14.2312-8.2164-31.7648,0-45.9961
		l105.002-181.8689c8.2164-14.2313,23.401-22.9981,39.8338-22.9981h210.0038c16.4328,0,31.6174,8.7668,39.8338,22.9981
		l105.002,181.8689c8.2164,14.2312,8.2164,31.7648,0,45.9961l-105.002,181.8689c-8.2164,14.2313-23.401,22.9981-39.8338,22.9981
		H150.9981C134.5652,483.8649,119.3807,475.0981,111.1643,460.8668z"/>
</g>
<g id="shadow">
	<g>
		<defs>
			<path id="SVGID_3_" d="M111.1643,460.8668L6.1623,278.9979c-8.2164-14.2312-8.2164-31.7648,0-45.9961l105.002-181.8689
				c8.2164-14.2313,23.401-22.9981,39.8338-22.9981h210.0038c16.4328,0,31.6174,8.7668,39.8338,22.9981l105.002,181.8689
				c8.2164,14.2312,8.2164,31.7648,0,45.9961l-105.002,181.8689c-8.2164,14.2313-23.401,22.9981-39.8338,22.9981H150.9981
				C134.5652,483.8649,119.3807,475.0981,111.1643,460.8668z"/>
		</defs>
		<clipPath id="SVGID_2_">
			<use xlink:href="#SVGID_3_"  style="overflow:visible;"/>
		</clipPath>
		<polygon style="opacity:0.07;clip-path:url(#SVGID_2_);" points="476.8749,332.4584 302.5417,158.125 290.125,185 263.125,158 
			250.625,184.75 223.9386,158.0636 217.3751,190.4153 193.625,194.5 188.6971,215.625 157.9653,222.9653 185.5,250.5 
			158.2578,262.6328 185.5,289.875 158.0833,301.5833 344.8125,488.3125 390.6685,488.1667 		"/>
	</g>
</g>
<g id="art">
	<g>
		<path style="fill:#FFFFFF;" d="M279.3217,228.3819l-45.6341,0.0045c-2.6719,0-4.8607,2.1864-4.8607,4.8533l0.005,45.627
			c0,2.6669,2.189,4.8607,4.8558,4.8607h45.6272c2.6719,0,4.8601-2.1938,4.8601-4.8607v-45.627
			C284.1749,230.5727,281.9916,228.3819,279.3217,228.3819"/>
		<path style="fill:#FFFFFF;" d="M351.5562,224.7041c2.3978,0,4.3578-1.9675,4.3578-4.3578v-7.1073
			c0-2.3898-1.96-4.3578-4.3578-4.3578h-22.1964v-20.7483c0-2.6649-2.1933-4.8558-4.8554-4.8558h-20.8339l0.0046-22.2815
			c0-2.3829-1.96-4.3528-4.3574-4.3528l-7.1098,0.0045c-2.3978,0-4.3577,1.9655-4.3577,4.3553l0.0049,22.2745h-23.4406v-22.2815
			c0-2.3829-1.96-4.3528-4.3528-4.3528l-7.1142,0.0045c-2.3978,0-4.3578,1.9655-4.3578,4.3553l0.005,22.2745l-23.4401,0.0025
			v-22.284c0-2.3829-1.9604-4.3528-4.3528-4.3528l-7.1123,0.0045c-2.3928,0-4.3577,1.9655-4.3577,4.3553l0.0049,22.277h-20.8289
			c-2.6719,0-4.8607,2.1884-4.8607,4.8533v20.7483h-22.1963c-2.388,0-4.3528,1.9655-4.3528,4.3553l0.0049,7.1148
			c0,2.3928,1.96,4.3528,4.3528,4.3528h22.1915l0.005,23.4426l-22.2013-0.005c-2.388,0-4.3528,1.963-4.3528,4.3553l0.0049,7.1073
			c0,2.4003,1.96,4.3578,4.3528,4.3578h22.1964v23.4426l-22.2013-0.005c-2.388,0-4.3528,1.9655-4.3528,4.3553l0.0049,7.1073
			c0,2.4003,1.96,4.3578,4.3528,4.3578h22.1964v20.7563c0,2.6644,2.1885,4.8557,4.8558,4.8557h20.8289v22.269
			c0,2.3998,1.965,4.3578,4.3573,4.3578h7.1028c2.3923,0,4.3528-1.958,4.3528-4.3578l0.005-22.269h23.4351l0.005,22.269
			c0,2.3998,1.9601,4.3578,4.3573,4.3578h7.1054c2.3922,0,4.3528-1.958,4.3528-4.3578l0.0044-22.269h23.4357l0.0049,22.269
			c0,2.3998,1.96,4.3578,4.3573,4.3578h7.1003c2.3973,0,4.3578-1.958,4.3578-4.3578l0.0046-22.269h20.8243
			c2.667,0,4.8553-2.1913,4.8553-4.8557l0.0051-20.7563l22.1964-0.005c2.3978,0,4.3578-1.955,4.3578-4.3528v-7.0998
			c0-2.3973-1.96-4.3578-4.3578-4.3578h-22.1964v-23.4426l22.1964-0.005c2.3978,0,4.3578-1.955,4.3578-4.3528v-7.0998
			c0-2.3973-1.96-4.3578-4.3578-4.3578h-22.1964v-23.4426H351.5562z M312.9687,312.5232h-112.935V199.5831l112.945-0.005
			L312.9687,312.5232z"/>
	</g>
</g>
<g id="Guides">
</g>
</svg>
