<svg id="Layer_1" data-name="Layer 1" xmlns="http://www.w3.org/2000/svg" width="128" height="128" viewBox="0 0 128 128">
  <title>Container Builder</title>
  <g>
    <path d="M126.47,58.12l-26.3-45.74A11.56,11.56,0,0,0,90.31,6.5H37.7a11.55,11.55,0,0,0-9.86,5.88L1.53,58a11.48,11.48,0,0,0,0,11.44l26.3,46a11.77,11.77,0,0,0,9.86,6.09H90.3a11.73,11.73,0,0,0,9.87-6.06l26.3-45.74A11.73,11.73,0,0,0,126.47,58.12Z" style="fill: #4285f4"/>
    <path d="M121.14,79l-32-32L64,38.75,38.92,47.06,54,62.15l0,1-5.47-5.47L36.75,79.82,78.43,121.5H90.34a11.73,11.73,0,0,0,9.87-6.06Z" style="opacity: 0.07"/>
    <g>
      <g>
        <polygon points="64.04 76.86 75.13 70.46 75.13 57.66 71.4 55.51 60.31 74.71 64.04 76.86" style="fill: #fff"/>
        <polygon points="52.95 57.66 52.95 70.46 56.68 72.61 67.77 53.41 64.04 51.26 52.95 57.66" style="fill: #fff"/>
      </g>
      <g>
        <polygon points="61.86 80.66 48.57 72.99 48.57 57.66 36.75 50.83 36.75 79.82 61.86 94.32 61.86 80.66" style="fill: #fff"/>
        <polygon points="50.74 53.88 64.04 46.2 77.34 53.88 89.17 47.06 64.04 32.55 38.91 47.06 50.74 53.88" style="fill: #fff"/>
        <polygon points="79.5 57.66 79.5 72.99 66.22 80.66 66.22 94.32 91.33 79.82 91.33 50.84 79.5 57.66" style="fill: #fff"/>
      </g>
    </g>
  </g>
</svg>
