<svg id="Layer_1" data-name="Layer 1" xmlns="http://www.w3.org/2000/svg" width="128" height="128" viewBox="0 0 128 128">
  <title>Data Studio</title>
  <g>
    <path d="M126.47,58.12l-26.3-45.74A11.56,11.56,0,0,0,90.31,6.5H37.7a11.55,11.55,0,0,0-9.86,5.88L1.53,58a11.48,11.48,0,0,0,0,11.44l26.3,46a11.77,11.77,0,0,0,9.86,6.09H90.3a11.73,11.73,0,0,0,9.87-6.06l26.3-45.74A11.73,11.73,0,0,0,126.47,58.12Z" style="fill: #4285f4"/>
    <path d="M88.3,39.6,76.36,44.2l-5.81-5.81L38.42,70.49l5,5L39.63,88.45,72.68,121.5H90.3a11.73,11.73,0,0,0,9.87-6.06l23.35-40.61Z" style="opacity: 0.070000000298023;isolation: isolate"/>
    <path d="M85.43,38.39H73.54v16.7a18.42,18.42,0,0,1-5.25,13,18.09,18.09,0,0,1-13.06,5.47H38.42v12a4.15,4.15,0,0,0,4.11,4.11h21c14.41,0,26-11,26-25.83V42.5A4.15,4.15,0,0,0,85.43,38.39Z" style="fill: #fff"/>
    <path d="M38.42,42.5v28H55.23a15.12,15.12,0,0,0,10.92-4.57,15.44,15.44,0,0,0,4.4-10.86V38.39h-28A4.15,4.15,0,0,0,38.42,42.5Z" style="fill: #fff"/>
  </g>
</svg>
