<svg id="Layer_1" data-name="Layer 1" xmlns="http://www.w3.org/2000/svg" width="128" height="128" viewBox="0 0 128 128">
  <title>Debugger</title>
  <g>
    <path d="M126.47,58.12l-26.3-45.74A11.56,11.56,0,0,0,90.31,6.5H37.7a11.55,11.55,0,0,0-9.86,5.88L1.53,58a11.48,11.48,0,0,0,0,11.44l26.3,46a11.77,11.77,0,0,0,9.86,6.09H90.3a11.73,11.73,0,0,0,9.87-6.06l26.3-45.74A11.73,11.73,0,0,0,126.47,58.12Z" style="fill: #4285f4"/>
    <path d="M87.44,40.66l-11.7,2.6-8-8-6.6,13.39-8-8L40.56,53.25l10.5,10.5-3,4.4L61.45,81.54l-.3,7.6L47.06,75l-6.5,12.59L74.42,121.5H90.3a11.73,11.73,0,0,0,9.87-6.06l22.63-39.35Z" style="opacity: 0.070000000298023;isolation: isolate"/>
    <g>
      <polygon id="Fill-7" points="40.56 53.26 47.06 53.26 47.06 47.16 53.15 47.16 53.15 40.66 40.56 40.66 40.56 53.26" style="fill: #fff"/>
      <polygon id="Fill-8" points="60.25 59.85 79.64 59.85 60.25 92.74 60.25 59.85" style="fill: #fff"/>
      <polygon id="Fill-9" points="67.75 68.15 48.06 68.15 67.75 35.26 67.75 68.15" style="fill: #fff"/>
      <polygon id="Fill-10" points="87.44 40.66 74.85 40.66 74.85 47.16 80.94 47.16 80.94 53.26 87.44 53.26 87.44 40.66" style="fill: #fff"/>
      <polygon id="Fill-11" points="40.56 87.64 53.15 87.64 53.15 81.04 47.06 81.04 47.06 75.05 40.56 75.05 40.56 87.64" style="fill: #fff"/>
      <polygon id="Fill-12" points="87.44 75.05 80.94 75.05 80.94 81.04 74.85 81.04 74.85 87.64 87.44 87.64 87.44 75.05" style="fill: #fff"/>
    </g>
  </g>
</svg>
