<svg id="Layer_1" data-name="Layer 1" xmlns="http://www.w3.org/2000/svg" width="128" height="128" viewBox="0 0 128 128">
  <title>Error Reporting</title>
  <g>
    <path d="M126.47,58.1l-26.3-45.74a11.56,11.56,0,0,0-9.86-5.88H37.7a11.55,11.55,0,0,0-9.86,5.88L1.53,58a11.48,11.48,0,0,0,0,11.44l26.3,46a11.77,11.77,0,0,0,9.86,6.09H90.3a11.73,11.73,0,0,0,9.87-6.06l26.3-45.74A11.73,11.73,0,0,0,126.47,58.1Z" style="fill: #4285f4"/>
    <path d="M94,49,69.26,39.27,64,34,39.83,46.94,36.92,75.42,49,94l27.48,27.48H90.3a11.73,11.73,0,0,0,9.87-6.06l22-38.23Z" style="opacity: 0.070000000298023;isolation: isolate"/>
    <g id="Group">
      <path id="Shape-3" d="M52.73,86,42,75.26V52.76L52.73,42h3.75L64,34H49L34,49V79L49,94H64l-7.5-8Z" style="fill: #fff"/>
      <polygon id="Shape-4" points="78.97 34.02 71.48 34.02 63.98 42.02 75.23 42.02 85.97 52.76 85.97 75.26 75.23 86 63.98 86 71.48 94 78.97 94 93.97 79 93.97 49.01 78.97 34.02" style="fill: #fff"/>
    </g>
    <g id="Group-2">
      <path id="Shape-5" d="M64,79l-7.5-7.5L64,64l-7.5-7.5L64,49h-7.5L49,56.51v15l7.5,7.5Z" style="fill: #fff"/>
      <polygon id="Shape-6" points="71.48 49.01 63.98 56.51 71.49 64.02 63.99 71.52 71.48 79 78.97 71.51 78.97 56.51 71.48 49.01" style="fill: #fff"/>
    </g>
  </g>
</svg>
