<?xml version="1.0" encoding="utf-8"?>
<!-- Generator: Adobe Illustrator 18.1.1, SVG Export Plug-In . SVG Version: 6.00 Build 0)  -->
<svg version="1.1" xmlns="http://www.w3.org/2000/svg" xmlns:xlink="http://www.w3.org/1999/xlink" x="0px" y="0px" width="512px"
	 height="512px" viewBox="0 0 512 512" style="enable-background:new 0 0 512 512;" xml:space="preserve">
<g id="BASE">
	<linearGradient id="SVGID_1_" gradientUnits="userSpaceOnUse" x1="256" y1="28.1348" x2="256" y2="483.1581">
		<stop  offset="0" style="stop-color:#4387FD"/>
		<stop  offset="1" style="stop-color:#4683EA"/>
	</linearGradient>
	<path style="fill:url(#SVGID_1_);" d="M111.1643,460.8668L6.1623,278.9979c-8.2164-14.2313-8.2164-31.7649,0-45.9961
		l105.002-181.8689c8.2164-14.2313,23.4009-22.9981,39.8338-22.9981h210.0038c16.4329,0,31.6174,8.7668,39.8338,22.9981
		l105.002,181.8689c8.2164,14.2312,8.2164,31.7648,0,45.9961l-105.002,181.8689c-8.2164,14.2313-23.4009,22.9981-39.8338,22.9981
		H150.9981C134.5652,483.8649,119.3807,475.0981,111.1643,460.8668z"/>
</g>
<g id="shadow">
	<g>
		<defs>
			<path id="SVGID_3_" d="M111.1643,460.8668L6.1623,278.9979c-8.2164-14.2313-8.2164-31.7649,0-45.9961l105.002-181.8689
				c8.2164-14.2313,23.4009-22.9981,39.8338-22.9981h210.0038c16.4329,0,31.6174,8.7668,39.8338,22.9981l105.002,181.8689
				c8.2164,14.2312,8.2164,31.7648,0,45.9961l-105.002,181.8689c-8.2164,14.2313-23.4009,22.9981-39.8338,22.9981H150.9981
				C134.5652,483.8649,119.3807,475.0981,111.1643,460.8668z"/>
		</defs>
		<clipPath id="SVGID_2_">
			<use xlink:href="#SVGID_3_"  style="overflow:visible;"/>
		</clipPath>
		<polygon style="opacity:0.07;clip-path:url(#SVGID_2_);" points="501.4166,296.2917 352.0833,146.9583 331,170.75 
			314.3753,157.6645 256.5,157.4583 162.625,165.9167 200.6667,203.9583 195.0125,220.7906 271.3297,297.1078 229.6875,300.3125 
			215.5154,289.1821 192.6875,311.7083 237.8333,356.8542 197.3125,354.2238 182.4375,342.375 160.6667,365.8333 282.8958,488.0625 
			390.6685,487.7917 		"/>
	</g>
</g>
<g id="art">
	<g>
		<polygon style="fill:#FFFFFF;" points="211.7753,219.1631 275.4774,219.1631 282.8651,211.7785 275.4774,204.4031 
			211.7753,204.4031 		"/>
		<circle style="fill:#FFFFFF;" cx="203.315" cy="211.7735" r="12.3"/>
		<circle style="fill:#FFFFFF;" cx="308.685" cy="211.7735" r="15.99"/>
	</g>
	<g>
		<polygon style="fill:#FFFFFF;" points="229.6086,300.2315 236.9903,307.6161 299.7699,307.6161 299.7699,292.8561 
			236.9903,292.8561 		"/>
		<circle style="fill:#FFFFFF;" cx="203.9299" cy="300.2265" r="15.9901"/>
		<circle style="fill:#FFFFFF;" cx="308.3775" cy="300.2265" r="12.3"/>
	</g>
	<g>
		<polygon style="fill:#FFFFFF;" points="180.1711,165.087 306.9895,165.087 314.371,157.7086 306.9895,150.3393 180.1711,150.327 
					"/>
		<circle style="fill:#FFFFFF;" cx="171.8407" cy="157.707" r="12.3"/>
		<circle style="fill:#FFFFFF;" cx="340.1971" cy="157.707" r="15.99"/>
	</g>
	<g>
		<polygon style="fill:#FFFFFF;" points="197.2931,354.2947 204.6686,361.6731 331.6407,361.6731 331.6407,346.9254 
			204.6686,346.9131 		"/>
		<circle style="fill:#FFFFFF;" cx="171.7383" cy="354.2931" r="15.99"/>
		<circle style="fill:#FFFFFF;" cx="340.2484" cy="354.2931" r="12.3"/>
	</g>
	<g>
		<circle style="fill:#FFFFFF;" cx="256" cy="256" r="15.99"/>
	</g>
</g>
<g id="Guides">
</g>
</svg>
