<?xml version="1.0" encoding="utf-8"?>
<!-- Generator: Adobe Illustrator 18.1.1, SVG Export Plug-In . SVG Version: 6.00 Build 0)  -->
<svg version="1.1" xmlns="http://www.w3.org/2000/svg" xmlns:xlink="http://www.w3.org/1999/xlink" x="0px" y="0px" width="512px"
	 height="512px" viewBox="0 0 512 512" style="enable-background:new 0 0 512 512;" xml:space="preserve">
<g id="BASE">
	<linearGradient id="SVGID_1_" gradientUnits="userSpaceOnUse" x1="256" y1="28.1348" x2="256" y2="483.1582">
		<stop  offset="0" style="stop-color:#4387FD"/>
		<stop  offset="1" style="stop-color:#4683EA"/>
	</linearGradient>
	<path style="fill:url(#SVGID_1_);" d="M111.1643,460.8668L6.1623,278.9979c-8.2164-14.2312-8.2164-31.7648,0-45.9961
		l105.002-181.8689c8.2164-14.2313,23.401-22.9981,39.8338-22.9981h210.0038c16.4328,0,31.6174,8.7668,39.8338,22.9981
		l105.002,181.8689c8.2164,14.2312,8.2164,31.7648,0,45.9961l-105.002,181.8689c-8.2164,14.2313-23.401,22.9981-39.8338,22.9981
		H150.9981C134.5652,483.8649,119.3807,475.0981,111.1643,460.8668z"/>
</g>
<g id="shadow">
	<g>
		<defs>
			<path id="SVGID_3_" d="M111.1643,460.8668L6.1623,278.9979c-8.2164-14.2312-8.2164-31.7648,0-45.9961l105.002-181.8689
				c8.2164-14.2313,23.401-22.9981,39.8338-22.9981h210.0038c16.4328,0,31.6174,8.7668,39.8338,22.9981l105.002,181.8689
				c8.2164,14.2312,8.2164,31.7648,0,45.9961l-105.002,181.8689c-8.2164,14.2313-23.401,22.9981-39.8338,22.9981H150.9981
				C134.5652,483.8649,119.3807,475.0981,111.1643,460.8668z"/>
		</defs>
		<clipPath id="SVGID_2_">
			<use xlink:href="#SVGID_3_"  style="overflow:visible;"/>
		</clipPath>
		<polygon style="opacity:0.07;clip-path:url(#SVGID_2_);" points="496.2083,331.4584 358.5158,193.7658 256,147.9997 158,201.25 
			153.8935,318.581 324.0625,488.75 390.6685,488.1667 		"/>
	</g>
</g>
<g id="art">
	<path style="fill:#FFFFFF;" d="M356.1028,191.9735l-94.7057-54.6784c-3.3398-1.9282-7.4545-1.9282-10.7943,0l-94.7057,54.6784
		c-3.3398,1.9282-5.3972,5.4917-5.3972,9.3481v109.3568c0,3.8564,2.0574,7.4199,5.3972,9.3481l94.7057,54.6783
		c3.3398,1.9282,7.4545,1.9282,10.7943,0l94.7057-54.6783c3.3398-1.9282,5.3972-5.4917,5.3972-9.3481V201.3216
		C361.5,197.4652,359.4426,193.9017,356.1028,191.9735z M343.1095,300.2016l-33.0416-19.0765v-50.2502l-48.7929,28.1707v56.3412
		l43.5179-25.1251l33.0416,19.0765L256,356.5854l-81.8345-47.2472l33.0415-19.0765l43.5179,25.1251v-56.3412l-48.793-28.1707
		v50.2502l-33.0415,19.0765v-94.4943l81.8345-47.2471v38.1531l-43.518,25.1251L256,249.9089l48.793-28.1707l-43.5179-25.1251
		v-38.1531l81.8345,47.2471V300.2016z"/>
</g>
<g id="Guides" style="display:none;">
</g>
</svg>
