<?xml version="1.0" encoding="utf-8"?>
<!-- Generator: Adobe Illustrator 18.1.1, SVG Export Plug-In . SVG Version: 6.00 Build 0)  -->
<svg version="1.1" xmlns="http://www.w3.org/2000/svg" xmlns:xlink="http://www.w3.org/1999/xlink" x="0px" y="0px" width="512px"
	 height="512px" viewBox="0 0 512 512" style="enable-background:new 0 0 512 512;" xml:space="preserve">
<g id="BASE">
	<linearGradient id="SVGID_1_" gradientUnits="userSpaceOnUse" x1="256" y1="28.1348" x2="256" y2="483.1582">
		<stop  offset="0" style="stop-color:#4387FD"/>
		<stop  offset="1" style="stop-color:#4683EA"/>
	</linearGradient>
	<path style="fill:url(#SVGID_1_);" d="M111.1643,460.8668L6.1623,278.9979c-8.2164-14.2312-8.2164-31.7648,0-45.9961
		l105.002-181.8689c8.2164-14.2313,23.401-22.9981,39.8338-22.9981h210.0038c16.4328,0,31.6174,8.7668,39.8338,22.9981
		l105.002,181.8689c8.2164,14.2312,8.2164,31.7648,0,45.9961l-105.002,181.8689c-8.2164,14.2313-23.401,22.9981-39.8338,22.9981
		H150.9981C134.5652,483.8649,119.3807,475.0981,111.1643,460.8668z"/>
</g>
<g id="shadow">
	<g>
		<defs>
			<path id="SVGID_3_" d="M111.1643,460.8668L6.1623,278.9979c-8.2164-14.2312-8.2164-31.7648,0-45.9961l105.002-181.8689
				c8.2164-14.2313,23.401-22.9981,39.8338-22.9981h210.0038c16.4328,0,31.6174,8.7668,39.8338,22.9981l105.002,181.8689
				c8.2164,14.2312,8.2164,31.7648,0,45.9961l-105.002,181.8689c-8.2164,14.2313-23.401,22.9981-39.8338,22.9981H150.9981
				C134.5652,483.8649,119.3807,475.0981,111.1643,460.8668z"/>
		</defs>
		<clipPath id="SVGID_2_">
			<use xlink:href="#SVGID_3_"  style="overflow:visible;"/>
		</clipPath>
		<polygon style="opacity:0.07;clip-path:url(#SVGID_2_);" points="505.1249,298.6251 386.375,179.875 197.25,215.5 
			123.625,277.0417 147.4583,300.875 125.625,320.7708 304.1667,499.3125 390.6685,499.1667 		"/>
	</g>
</g>
<g id="art">
	<g>
		<g>
			<path style="fill:#FFFFFF;" d="M296.8051,357.1948h-80.6102c-2.2091,0-4-1.7909-4-4v-0.0923c0-2.2091,1.7909-4,4-4h80.6102
				c2.2091,0,4,1.7909,4,4v0.0923C300.8051,355.404,299.0143,357.1948,296.8051,357.1948z"/>
		</g>
		<rect x="241.0118" y="318.0231" style="fill:#FFFFFF;" width="30.9764" height="35.1256"/>
		<g>
			<path style="fill:#FFFFFF;" d="M342.6533,291.8762c-2.0044,0-3.9214-0.8138-5.3139-2.2569l-54.3357-56.2974l-36.5313,38.4134
				c-2.6492,2.789-6.9959,3.0746-9.9889,0.6565l-27.5952-22.2793l-29.2499,38.8232c-1.3965,1.851-3.5795,2.9405-5.8985,2.9405
				h-50.1551v22.7668c0,5.4152,4.4307,9.8456,9.8456,9.8456h246.1398c5.4149,0,9.8452-4.4305,9.8452-9.8456v-22.7668H342.6533z"/>
			<path style="fill:#FFFFFF;" d="M170.0573,277.1075l31.6292-41.9812c1.2061-1.5984,3.0066-2.6395,4.9935-2.8842
				c1.983-0.237,3.9893,0.3263,5.5431,1.5829l28.24,22.7998l37.1509-39.0659c1.3867-1.4586,3.3095-2.2879,5.3236-2.2957
				c0.0097,0,0.0175,0,0.0272,0c2.0044,0,3.9214,0.8138,5.3139,2.2569l57.5093,59.5875h43.6273v-90.457
				c0-5.4152-4.4302-9.8456-9.8452-9.8456H133.4303c-5.4149,0-9.8456,4.4305-9.8456,9.8456v90.457H170.0573z"/>
		</g>
	</g>
</g>
<g id="Guides">
</g>
</svg>
