<svg xmlns="http://www.w3.org/2000/svg" xmlns:xlink="http://www.w3.org/1999/xlink" width="512" height="512" viewBox="0 0 512 512"><defs><linearGradient id="a" x1="256" y1="28.1348" x2="256" y2="483.1581" gradientUnits="userSpaceOnUse"><stop offset="0" stop-color="#4387fd"/><stop offset="1" stop-color="#4683ea"/></linearGradient><clipPath id="b"><path d="M111.1643,460.8668L6.1623,278.9979a45.9962,45.9962,0,0,1,0-45.9961L111.1643,51.1329a45.9959,45.9959,0,0,1,39.8338-22.9981H361.0019a45.9959,45.9959,0,0,1,39.8338,22.9981l105.002,181.8689a45.9962,45.9962,0,0,1,0,45.9961L400.8357,460.8668a45.9959,45.9959,0,0,1-39.8338,22.9981H150.9981A45.9959,45.9959,0,0,1,111.1643,460.8668Z" fill="none"/></clipPath></defs><title>Block-Storage</title><path d="M111.1643,460.8668L6.1623,278.9979a45.9962,45.9962,0,0,1,0-45.9961L111.1643,51.1329a45.9959,45.9959,0,0,1,39.8338-22.9981H361.0019a45.9959,45.9959,0,0,1,39.8338,22.9981l105.002,181.8689a45.9962,45.9962,0,0,1,0,45.9961L400.8357,460.8668a45.9959,45.9959,0,0,1-39.8338,22.9981H150.9981A45.9959,45.9959,0,0,1,111.1643,460.8668Z" fill="url(#a)"/><g clip-path="url(#b)"><polygon points="496 324 332 160 204 176 180 240 200 260 180 296 200 316 180 352 320 492 392 492 496 324" opacity="0.07"/></g><polygon points="296 272 296 316 180 316 180 352 332 352 332 272 296 272" fill="#fff"/><polygon points="216 240 216 196 332 196 332 160 180 160 180 240 216 240" fill="#fff"/><polygon points="236 216 236 260 180 260 180 296 276 296 276 252 332 252 332 216 236 216" fill="#fff"/></svg>