<svg id="Layer_1" data-name="Layer 1" xmlns="http://www.w3.org/2000/svg" width="128" height="128" viewBox="0 0 128 128">
  <title>Security Key Enforcement</title>
  <path d="M126.47,58.12l-26.3-45.74A11.56,11.56,0,0,0,90.31,6.5H37.7a11.55,11.55,0,0,0-9.86,5.88L1.53,58a11.48,11.48,0,0,0,0,11.44l26.3,46a11.77,11.77,0,0,0,9.86,6.09H90.3a11.73,11.73,0,0,0,9.87-6.06l26.3-45.74A11.73,11.73,0,0,0,126.47,58.12Z" style="fill: #4285f4"/>
  <path d="M77.95,45.26,69.75,42H66.67L78.51,53.87l1,3.66L67.19,45.2l-16.79,6L50,62.43,60.11,72.57,46.55,82.36,85.69,121.5H90.3a11.73,11.73,0,0,0,9.87-6.06L117.68,85Z" style="opacity: 0.070000000298023;isolation: isolate"/>
  <path d="M54.6,74.23c0-2.9,0-5.64,0-8.38,0-.33-.66-.74-1.09-.95A12.18,12.18,0,1,1,70.08,49.67a12.05,12.05,0,0,1-6.16,15.15,1.85,1.85,0,0,0-1.22,2c0,6,0,11.9,0,17.86v1.58h-8.1V82.36H46.55V74.23ZM62.72,53.9a4.06,4.06,0,1,0-4.09,4h0a4.08,4.08,0,0,0,4.07-4Z" style="fill: #fff"/>
  <path d="M80.77,49.67A12.14,12.14,0,0,0,66.67,42,12.14,12.14,0,0,1,69.2,64.82a1.85,1.85,0,0,0-1.22,2c0,6,0,11.9,0,17.86v1.58h5.41V84.7c0-6,0-11.9,0-17.86a1.85,1.85,0,0,1,1.22-2A12.05,12.05,0,0,0,80.77,49.67Z" style="fill: #fff"/>
</svg>
