<svg id="Layer_1" data-name="Layer 1" xmlns="http://www.w3.org/2000/svg" width="128" height="128" viewBox="0 0 128 128">
  <title>BeyondCorp</title>
  <g>
    <path d="M126.47,58.12l-26.3-45.74A11.56,11.56,0,0,0,90.31,6.5H37.7a11.55,11.55,0,0,0-9.86,5.88L1.53,58a11.48,11.48,0,0,0,0,11.44l26.3,46a11.77,11.77,0,0,0,9.86,6.09H90.3a11.73,11.73,0,0,0,9.87-6.06l26.3-45.74A11.73,11.73,0,0,0,126.47,58.12Z" style="fill: #4285f4"/>
    <path d="M126.47,69.69c.07-.11.11-.24.17-.35L88.09,30.78l-8,.24c-4.81,6.44-10.66,4.37-16.53,4.37A28.63,28.63,0,0,0,43,84L41.3,86.54l35,35h14a11.73,11.73,0,0,0,9.87-6.06Z" style="opacity: 0.070000000298023;isolation: isolate"/>
    <path d="M88.85,45a38.78,38.78,0,0,1-3.25,3.1A27.24,27.24,0,0,1,50.23,87.84H56a25.16,25.16,0,0,1-2.9-4.39H44.43a27.47,27.47,0,0,1-3.36-4H51.34A40,40,0,0,1,50,75.05H38.64a27.06,27.06,0,0,1-1.41-4h12q-.32-2.13-.45-4.39H36.44c-.08-.84-.12-1.7-.12-2.57V62.64H48.65a41.13,41.13,0,0,1,.27-4.39h-12a27.06,27.06,0,0,1,1.21-4H49.57a42.58,42.58,0,0,1,1.1-4.39H40.35a27.42,27.42,0,0,1,3-4h8.82a29.2,29.2,0,0,1,2.4-4.39H48.42a27.06,27.06,0,0,1,26.06-2.32,35.8,35.8,0,0,0,4.34,10.73s9.87-5.63,11.38-11.59a8.15,8.15,0,0,0-15.75-4.13v.22A31.64,31.64,0,1,0,95.21,64.09,29.38,29.38,0,0,0,88.85,45Zm-10.15-9.8a3.83,3.83,0,1,1,2.74,4.67h0a3.83,3.83,0,0,1-2.74-4.67Z" style="fill: #fff"/>
  </g>
</svg>
