<svg id="Layer_1" data-name="Layer 1" xmlns="http://www.w3.org/2000/svg" width="128" height="128" viewBox="0 0 128 128">
  <title>Cloud Router</title>
  <g>
    <path d="M126.47,58.12l-26.3-45.74A11.56,11.56,0,0,0,90.31,6.5H37.7a11.55,11.55,0,0,0-9.86,5.88L1.53,58a11.48,11.48,0,0,0,0,11.44l26.3,46a11.77,11.77,0,0,0,9.86,6.09H90.3a11.73,11.73,0,0,0,9.87-6.06l26.3-45.74A11.73,11.73,0,0,0,126.47,58.12Z" style="fill: #4285f4"/>
    <path d="M85.67,48.5l-2.12,4.09L79.47,48.5,60.6,42,48.48,48.5,70.18,70.19l-3.57,2.62L57.78,64H35.11L33,70.19,84.27,121.5h6a11.73,11.73,0,0,0,9.87-6.06l19.15-33.3Z" style="opacity: 0.070000000298023;isolation: isolate"/>
    <g id="art">
      <g id="All-Icons">
        <g id="_24_router" data-name=" 24 router">
          <path id="Shape" d="M85.67,70.19v9.3L70.18,64,85.67,48.51v9.3H95V70.2ZM42.29,57.79H33v12.4h9.3v9.3L57.78,64,42.29,48.5Zm27.89,21.7V70.19H57.78v9.31h-9.3L64,95,79.47,79.49Zm0-31v9.29H57.78V48.51h-9.3L64,33,79.47,48.51Z" style="fill: #fff"/>
        </g>
      </g>
    </g>
  </g>
</svg>
