<svg id="Layer_1" data-name="Layer 1" xmlns="http://www.w3.org/2000/svg" width="128" height="128" viewBox="0 0 128 128">
  <title>Cloud Network</title>
  <g>
    <path d="M126.47,58.12l-26.3-45.74A11.56,11.56,0,0,0,90.31,6.5H37.7a11.55,11.55,0,0,0-9.86,5.88L1.53,58a11.48,11.48,0,0,0,0,11.44l26.3,46a11.77,11.77,0,0,0,9.86,6.09H90.3a11.73,11.73,0,0,0,9.87-6.06l26.3-45.74A11.73,11.73,0,0,0,126.47,58.12Z" style="fill: #4285f4"/>
    <path d="M68.1,40.19l-4-.73L60,48.16l3.47,3.47-1,5.62L68.22,63,52.7,64.57,48.11,60l-8,8.06,53.05,53.05a12.26,12.26,0,0,0,7.05-5.65L115.94,88Z" style="opacity: 0.070000000298023;isolation: isolate"/>
    <g id="art">
      <g id="icon">
        <circle cx="64" cy="44.1" r="5.69" style="fill: #fff"/>
        <circle cx="64" cy="83.92" r="5.69" style="fill: #fff"/>
        <circle cx="44.09" cy="64.01" r="5.69" style="fill: #fff"/>
        <circle cx="83.91" cy="64.01" r="5.69" style="fill: #fff"/>
        <polygon points="62.55 85.48 39.04 62.17 79.03 62.17 62.55 45.66 65.45 42.59 88.97 65.85 48.97 65.85 65.45 82.41 62.55 85.48" style="fill: #fff"/>
        <rect x="62.51" y="70.75" width="2.45" height="13.49" style="fill: #fff"/>
        <rect x="62.51" y="43.77" width="2.45" height="13.49" style="fill: #fff"/>
      </g>
    </g>
  </g>
</svg>
