<svg id="Layer_1" data-name="Layer 1" xmlns="http://www.w3.org/2000/svg" width="128" height="128" viewBox="0 0 128 128">
  <title>Cloud External IP Addresses</title>
  <g>
    <path d="M126.47,58.12l-26.3-45.74A11.56,11.56,0,0,0,90.31,6.5H37.7a11.55,11.55,0,0,0-9.86,5.88L1.53,58a11.48,11.48,0,0,0,0,11.44l26.3,46a11.77,11.77,0,0,0,9.86,6.09H90.3a11.73,11.73,0,0,0,9.87-6.06l26.3-45.74A11.73,11.73,0,0,0,126.47,58.12Z" style="fill: #4285f4"/>
    <path d="M88.71,39.35,74.9,41.93,71.19,51.8l-7.5-7.5L43.24,47.13l-4,41.57L72,121.5H90.3a11.73,11.73,0,0,0,9.87-6.06l23.6-41Z" style="opacity: 0.070000000298023;isolation: isolate"/>
    <g id="art">
      <g>
        <path d="M77.73,65V81.74a1,1,0,0,1-1,1H46.24a1,1,0,0,1-1-1V51.25a1,1,0,0,1,1-1H63a1,1,0,0,0,1-1V45a1,1,0,0,0-1-1H40a1,1,0,0,0-1,1V88a1,1,0,0,0,1,1H83a1,1,0,0,0,1-1V65a1,1,0,0,0-1-1H78.73A1,1,0,0,0,77.73,65Z" style="fill: #fff"/>
        <path d="M69,40V58a1,1,0,0,0,1,1H88a1,1,0,0,0,1-1V40a1,1,0,0,0-1-1H70A1,1,0,0,0,69,40ZM83,50.25H78.73a1,1,0,0,1-1-1V45a1,1,0,0,1,1-1H83a1,1,0,0,1,1,1v4.25A1,1,0,0,1,83,50.25Z" style="fill: #fff"/>
      </g>
    </g>
  </g>
</svg>
