<svg id="Layer_1" data-name="Layer 1" xmlns="http://www.w3.org/2000/svg" width="128" height="128" viewBox="0 0 128 128">
  <title>Cloud Routes</title>
  <g>
    <path d="M126.47,58.1l-26.3-45.74a11.56,11.56,0,0,0-9.86-5.88H37.7a11.55,11.55,0,0,0-9.86,5.88L1.53,58a11.48,11.48,0,0,0,0,11.44l26.3,46a11.77,11.77,0,0,0,9.86,6.09H90.3a11.73,11.73,0,0,0,9.87-6.06l26.3-45.74A11.73,11.73,0,0,0,126.47,58.1Z" style="fill: #4285f4"/>
    <path d="M93.47,49.36l-24.24.38-2.45,11L80.41,74.37l.19,2.15L48.53,44.44,37.54,54l12.13,13.2L37.49,83.52l37.46,38H90.3a11.73,11.73,0,0,0,9.87-6.06l21.82-38Z" style="opacity: 0.070000000298023;isolation: isolate"/>
    <g id="art">
      <g>
        <polygon points="78.58 83.4 67.76 83.4 44.28 54.04 37.49 54.04 37.49 44.44 48.53 44.44 72.02 73.8 78.58 73.8 78.58 66.2 93.47 78.59 78.58 91 78.58 83.4" style="fill: #fff"/>
        <g>
          <polygon points="66.78 60.72 72.02 54.16 78.58 54.16 78.58 61.76 93.47 49.36 78.58 36.96 78.58 44.56 67.76 44.56 60.8 53.25 66.78 60.72" style="fill: #fff"/>
          <polygon points="49.62 67.24 44.28 73.92 37.49 73.92 37.49 83.52 48.53 83.52 55.58 74.71 49.62 67.24" style="fill: #fff"/>
        </g>
      </g>
    </g>
  </g>
</svg>
