<svg id="Layer_1" data-name="Layer 1" xmlns="http://www.w3.org/2000/svg" width="128" height="128" viewBox="0 0 128 128">
  <title>Cloud IoT Core</title>
  <g>
    <path d="M126.47,58.1l-26.3-45.74a11.56,11.56,0,0,0-9.86-5.88H37.7a11.55,11.55,0,0,0-9.86,5.88L1.53,58a11.48,11.48,0,0,0,0,11.44l26.3,46a11.77,11.77,0,0,0,9.86,6.09H90.3a11.73,11.73,0,0,0,9.87-6.06l26.3-45.74A11.73,11.73,0,0,0,126.47,58.1Z" style="fill: #4285f4"/>
    <path d="M88.86,46.6l-7,.32-7.16-7.16-34,12.74-1.6,9.61L49,71.95,46.1,76.38l-1.59,3.71.26,3.26L82.9,121.48h7.4a11.73,11.73,0,0,0,9.87-6.06l21-36.52Z" style="opacity: 0.070000000298023;isolation: isolate"/>
    <path d="M65.46,80.89V65.23h-3V80.89a5.88,5.88,0,1,0,3,0Zm-1.54,8.56a2.87,2.87,0,1,1,2.87-2.87,2.87,2.87,0,0,1-2.87,2.87Z" style="fill: #fff"/>
    <path d="M80.5,73.56V65.26h-3v8.31a5.88,5.88,0,1,0,3,0ZM79,82.12a2.87,2.87,0,1,1,2.87-2.87A2.87,2.87,0,0,1,79,82.12Z" style="fill: #fff"/>
    <path d="M50.48,73.66V65.25h-3v8.32a5.88,5.88,0,1,0,7.38,5.68A5.71,5.71,0,0,0,50.48,73.66ZM49,82.12a2.87,2.87,0,1,1,2.87-2.87A2.87,2.87,0,0,1,49,82.12Z" style="fill: #fff"/>
    <path d="M81.21,43.45a10.87,10.87,0,0,0-3.47.57,14.87,14.87,0,0,0-27,.19,10.89,10.89,0,1,0-4,21h.69v-8a3.24,3.24,0,1,1,3,0v8.06h27v-8a3.24,3.24,0,1,1,3,0v8h.71a10.89,10.89,0,0,0,0-21.78ZM65.46,52.63v12.6h-3V52.63a3.24,3.24,0,1,1,3,0Z" style="fill: #fff"/>
  </g>
</svg>
