<svg id="Layer_1" data-name="Layer 1" xmlns="http://www.w3.org/2000/svg" width="128" height="128" viewBox="0 0 128 128">
  <title>Container-Optimized OS</title>
  <g>
    <path d="M126.47,58.12l-26.3-45.74A11.56,11.56,0,0,0,90.31,6.5H37.7a11.55,11.55,0,0,0-9.86,5.88L1.53,58a11.48,11.48,0,0,0,0,11.44l26.3,46a11.77,11.77,0,0,0,9.86,6.09H90.3a11.73,11.73,0,0,0,9.87-6.06l26.3-45.74A11.73,11.73,0,0,0,126.47,58.12Z" style="fill: #4285f4"/>
    <path d="M85.52,42.64,64.58,35.33,44.91,43.55,36.18,61.82l6.19,24,34.7,35.69H90.3a11.73,11.73,0,0,0,9.87-6.06L121.4,78.51Z" style="opacity: 0.070000000298023;isolation: isolate"/>
    <path d="M64,33.76A30.52,30.52,0,1,0,94.52,64.28h0A30.52,30.52,0,0,0,64,33.76Zm0,55a24.35,24.35,0,0,1-12.76-3.61l10.94-6.32h0V65.11L50.29,58.22V72l8.39,4.85-10.56,6.1a24.47,24.47,0,0,1,3.92-40V55.19h0L64,62.07l11.91-6.88L64,48.31l-8.41,4.85V41.31a24.44,24.44,0,0,1,33,23c0,.07,0,.14,0,.22L77.62,58.22h0L65.71,65.1V78.86L77.62,72V62.27l10.52,6.08A24.49,24.49,0,0,1,64,88.79Z" style="fill: #fff"/>
  </g>
</svg>
