<svg id="Layer_1" data-name="Layer 1" xmlns="http://www.w3.org/2000/svg" width="128" height="128" viewBox="0 0 128 128">
  <title>Data Transfer Appliance</title>
  <path d="M126.47,58.12l-26.3-45.74A11.56,11.56,0,0,0,90.31,6.5H37.7a11.55,11.55,0,0,0-9.86,5.88L1.53,58a11.48,11.48,0,0,0,0,11.44l26.3,46a11.77,11.77,0,0,0,9.86,6.09H90.3a11.73,11.73,0,0,0,9.87-6.06l26.3-45.74A11.73,11.73,0,0,0,126.47,58.12Z" style="fill: #4285f4"/>
  <path d="M100.17,115.44,122.3,77,92.67,47.49,54.22,49.22,53,55.6,57,59.69H54.25L47.61,53,37.45,56.63l4.83,4.83-10.09,4.3,5.43,5.43-.16,3.7L84.07,121.5H90.3A11.73,11.73,0,0,0,100.17,115.44Z" style="opacity: 0.070000000298023;isolation: isolate"/>
  <path d="M92,47.19H53.67a1,1,0,0,0-1,1v6.69a1,1,0,0,0,1,1H92a1,1,0,0,0,1-1V48.2A1,1,0,0,0,92,47.19ZM57.47,53.81a2.18,2.18,0,1,1,2.18-2.18h0A2.18,2.18,0,0,1,57.47,53.81Z" style="fill: #fff"/>
  <path d="M92,59.69H53.67a1,1,0,0,0-1,1v6.65a1,1,0,0,0,1,1H92a1,1,0,0,0,1-1V60.68A1,1,0,0,0,92,59.69ZM57.47,66.34a2.18,2.18,0,1,1,2.18-2.18h0A2.18,2.18,0,0,1,57.47,66.34Z" style="fill: #fff"/>
  <path d="M92.14,72.13H53.85a1,1,0,0,0-1,1v6.69a1,1,0,0,0,1,1H92.14a1,1,0,0,0,1-1v-6.7A1,1,0,0,0,92.14,72.13Zm-34.5,6.58a2.18,2.18,0,1,1,2.18-2.18,2.18,2.18,0,0,1-2.18,2.18Z" style="fill: #fff"/>
  <path d="M45.86,57.38H39.24a2.52,2.52,0,1,1,0-5h6.62a2.52,2.52,0,1,1,0,5Z" style="fill: #fff"/>
  <path d="M45.86,66.5H34a2.52,2.52,0,1,1,0-5H45.86a2.52,2.52,0,1,1,0,5Z" style="fill: #fff"/>
  <path d="M45.86,75.63H39.24a2.52,2.52,0,1,1,0-5h6.62a2.52,2.52,0,1,1,0,5Z" style="fill: #fff"/>
</svg>
