<svg id="Layer_1" data-name="Layer 1" xmlns="http://www.w3.org/2000/svg" width="128" height="128" viewBox="0 0 128 128">
  <title>GPU</title>
  <g>
    <path d="M126.47,58.12l-26.3-45.74A11.56,11.56,0,0,0,90.31,6.5H37.7a11.55,11.55,0,0,0-9.86,5.88L1.53,58a11.48,11.48,0,0,0,0,11.44l26.3,46a11.77,11.77,0,0,0,9.86,6.09H90.3a11.73,11.73,0,0,0,9.87-6.06l26.3-45.74A11.73,11.73,0,0,0,126.47,58.12Z" style="fill: #4285f4"/>
    <path d="M78.38,37.78l-4.32,6.36-6.39-6.39-5.12,6.82-6.82-6.82-7,10.33-11,7.1,7.49,7.49-7.49,4.45,5.54,5.54-5.54,5.17L81.42,121.5H90.3a11.73,11.73,0,0,0,9.87-6.06L120.57,80Z" style="opacity: 0.070000000298023;isolation: isolate"/>
    <path d="M77.18,49.46h.14a1.45,1.45,0,0,1,1.13,1.13V76.78a1.45,1.45,0,0,1-1.13,1.13H51.16A1.45,1.45,0,0,1,50,76.79V50.62a1.45,1.45,0,0,1,1.13-1.13h26m1.2-11.71H72.76V44H67.67V37.75H62V44H55.73V37.75H50.1v6.39a6.9,6.9,0,0,0-5.42,5.42H37.75v5.62h6.8V61.5h-6.8v5.62h6.8v5.09h-6.8v5.62h6.93a6.9,6.9,0,0,0,5.42,5.42v7h5.62V83.39H62v6.85h5.62V83.39h5.09v6.85h5.62v-7a6.9,6.9,0,0,0,5.42-5.42H90.2v-5.6H83.94V67.13h6.31V61.5H83.94V55.19h6.31V49.56H83.8a6.9,6.9,0,0,0-5.42-5.42Z" style="fill: #fff"/>
    <polygon points="66.19 52.17 66.19 61.66 71.39 61.66 62.12 74.54 62.12 64.94 56.64 64.94 66.19 52.17" style="fill: #fff"/>
  </g>
</svg>
