<svg id="Layer_1" data-name="Layer 1" xmlns="http://www.w3.org/2000/svg" width="128" height="128" viewBox="0 0 128 128">
  <title>Stackdriver</title>
  <g>
    <path d="M126.47,58.11l-26.3-45.74a11.56,11.56,0,0,0-9.86-5.88H37.7a11.55,11.55,0,0,0-9.86,5.88L1.53,58a11.48,11.48,0,0,0,0,11.44l26.3,46a11.77,11.77,0,0,0,9.86,6.09H90.3a11.73,11.73,0,0,0,9.87-6.06l26.3-45.74A11.73,11.73,0,0,0,126.47,58.11Z" style="fill: #4285f4"/>
    <path d="M80.15,39.93l-.46,2.24L75.53,38l-25,3.75L34,62l6,6.14-5.23-1.44L47.8,90,82,121.49H90.3a11.73,11.73,0,0,0,9.87-6.06l20.21-35.15Z" style="opacity: 0.070000000298023;isolation: isolate"/>
    <polygon points="94 64.02 80.15 39.93 66.29 64.02 80.15 88.11 94 64.02" style="fill: #dde7f5"/>
    <polygon points="34 66.02 47.8 90.02 75.48 90.02 61.68 66.02 34 66.02" style="fill: #bcd0eb"/>
    <polygon points="61.5 62.02 75.53 38.02 47.85 38.02 34 62.02 61.5 62.02" style="fill: #fff"/>
  </g>
</svg>
